<svg xmlns="http://www.w3.org/2000/svg" viewBox="0 0 1240 710"><style>
@keyframes a0_t { 0% { transform: translate(773.5px,404.2px) scale(1,1) translate(-4px,-4px); } 50% { transform: translate(773.5px,404.2px) scale(.2,.2) translate(-4px,-4px); } 100% { transform: translate(773.5px,404.2px) scale(1,1) translate(-4px,-4px); } }
@keyframes a1_t { 0% { transform: translate(724.7px,529.1px) scale(1,1) translate(-4px,-4px); } 50% { transform: translate(724.7px,529.1px) scale(.2,.2) translate(-4px,-4px); } 100% { transform: translate(724.7px,529.1px) scale(1,1) translate(-4px,-4px); } }
@keyframes a2_t { 0% { transform: translate(522.6px,504.3px) scale(1,1) translate(-4px,-4px); } 50% { transform: translate(522.6px,504.3px) scale(.2,.2) translate(-4px,-4px); } 100% { transform: translate(522.6px,504.3px) scale(1,1) translate(-4px,-4px); } }
@keyframes a3_t { 0% { transform: translate(424.1px,144.8px) scale(1,1) translate(-4px,-4px); } 50% { transform: translate(424.1px,144.8px) scale(.2,.2) translate(-4px,-4px); } 100% { transform: translate(424.1px,144.8px) scale(1,1) translate(-4px,-4px); } }
@keyframes a4_t { 0% { transform: translate(799.6px,75px) scale(1,1) translate(-4px,-4px); } 50% { transform: translate(799.6px,75px) scale(.2,.2) translate(-4px,-4px); } 100% { transform: translate(799.6px,75px) scale(1,1) translate(-4px,-4px); } }
@keyframes a5_t { 0% { transform: translate(343.3px,568.7px) scale(1,1) translate(-4px,-4px); } 50% { transform: translate(343.3px,568.7px) scale(.2,.2) translate(-4px,-4px); } 100% { transform: translate(343.3px,568.7px) scale(1,1) translate(-4px,-4px); } }
@keyframes a6_t { 0% { transform: translate(314.1px,373.5px) scale(1,1) translate(-4px,-4px); } 50% { transform: translate(314.1px,373.5px) scale(.2,.2) translate(-4px,-4px); } 100% { transform: translate(314.1px,373.5px) scale(1,1) translate(-4px,-4px); } }
@keyframes a11_t { 0% { transform: translate(148.4px,604.8px) scale(1,1) translate(-140.7px,-41.8px); } 11.765% { transform: translate(148.4px,604.8px) scale(1,1) translate(-140.7px,-41.8px); } 20.588% { transform: translate(148.4px,604.8px) scale(0,0) translate(-140.7px,-41.8px); } 64.706% { transform: translate(148.4px,604.8px) scale(0,0) translate(-140.7px,-41.8px); } 73.529% { transform: translate(148.4px,604.8px) scale(1,1) translate(-140.7px,-41.8px); } 100% { transform: translate(148.4px,604.8px) scale(1,1) translate(-140.7px,-41.8px); } }
@keyframes a12_t { 0% { transform: translate(415.2px,51px) scale(0,0) translate(-128px,-42.3px); } 8.823% { transform: translate(415.2px,51px) scale(1,1) translate(-128px,-42.3px); } 50% { transform: translate(415.2px,51px) scale(1,1) translate(-128px,-42.3px); } 58.824% { transform: translate(415.2px,51px) scale(0,0) translate(-128px,-42.3px); } 100% { transform: translate(415.2px,51px) scale(0,0) translate(-128px,-42.3px); } }
@keyframes a13_t { 0% { transform: translate(1111.1px,214.9px) scale(0,0) translate(-121.1px,-41.8px); } 35.294% { transform: translate(1111.1px,214.9px) scale(0,0) translate(-121.1px,-41.8px); } 44.118% { transform: translate(1111.1px,214.9px) scale(1,1) translate(-121.1px,-41.8px); } 85.294% { transform: translate(1111.1px,214.9px) scale(1,1) translate(-121.1px,-41.8px); } 94.118% { transform: translate(1111.1px,214.9px) scale(0,0) translate(-121.1px,-41.8px); } 100% { transform: translate(1111.1px,214.9px) scale(0,0) translate(-121.1px,-41.8px); } }
@keyframes a14_t { 0% { transform: translate(596.5px,285.3px); } 7.843% { transform: translate(596.5px,285.3px); } 15.686% { transform: translate(596.5px,285.3px); } 21.569% { transform: translate(596.5px,285.3px); } 33.333% { transform: translate(596.5px,419.2px); } 39.216% { transform: translate(498.9px,419.2px); } 49.02% { transform: translate(498.9px,520.3px); } 74.51% { transform: translate(498.9px,520.3px); } 82.353% { transform: translate(498.9px,419.2px); } 88.235% { transform: translate(596.5px,419.2px); } 100% { transform: translate(596.5px,285.3px); } }
@keyframes a14_o { 0% { opacity: 1; } 5.882% { opacity: 0; } 7.843% { opacity: 0; } 15.686% { opacity: 0; } 21.569% { opacity: 1; } 49.02% { opacity: 1; } 54.902% { opacity: 0; } 68.627% { opacity: 0; } 74.51% { opacity: 1; } 100% { opacity: 1; } }
@keyframes a15_t { 0% { transform: translate(391px,361.8px); } 11.628% { transform: translate(391px,361.8px); } 18.605% { transform: translate(391px,361.8px); } 27.907% { transform: translate(391px,449.9px); } 34.884% { transform: translate(454.4px,449.9px); } 41.86% { transform: translate(454.4px,520.3px); } 67.442% { transform: translate(454.4px,520.3px); } 74.419% { transform: translate(454.4px,449.9px); } 81.395% { transform: translate(391px,449.9px); } 90.698% { transform: translate(391px,361.8px); } 100% { transform: translate(391px,361.8px); } }
@keyframes a15_o { 0% { opacity: 0; } 11.628% { opacity: 0; } 18.605% { opacity: 1; } 41.86% { opacity: 1; } 48.837% { opacity: 0; } 60.465% { opacity: 0; } 67.442% { opacity: 1; } 90.698% { opacity: 1; } 97.674% { opacity: 0; } 100% { opacity: 0; } }
@keyframes a16_t { 0% { transform: translate(391px,485.4px); } 3.846% { transform: translate(391px,485.4px); } 9.615% { transform: translate(391px,485.4px); } 30.769% { transform: translate(738.3px,485.4px); } 40.385% { transform: translate(738.3px,345.4px); } 61.538% { transform: translate(738.3px,345.4px); } 73.077% { transform: translate(738.3px,485.4px); } 92.308% { transform: translate(391px,485.4px); } 100% { transform: translate(391px,485.4px); } }
@keyframes a16_o { 0% { opacity: 0; } 3.846% { opacity: 0; } 9.615% { opacity: 1; } 40.385% { opacity: 1; } 46.154% { opacity: 0; } 55.769% { opacity: 0; } 61.538% { opacity: 1; } 92.308% { opacity: 1; } 98.077% { opacity: 0; } 100% { opacity: 0; } }
@keyframes a17_t { 0% { transform: translate(508.3px,373.5px); } 7.273% { transform: translate(508.3px,285.3px); } 9.091% { transform: translate(508.3px,285.3px); } 25.454% { transform: translate(508.3px,285.3px); } 29.091% { transform: translate(508.3px,285.3px); } 36.364% { transform: translate(508.3px,373.5px); } 56.364% { transform: translate(887.4px,373.5px); } 80% { transform: translate(887.4px,373.5px); } 100% { transform: translate(508.3px,373.5px); } }
@keyframes a17_o { 0% { opacity: 1; } 7.273% { opacity: 1; } 9.091% { opacity: 1; } 14.545% { opacity: 0; } 25.455% { opacity: 0; } 29.091% { opacity: 1; } 56.364% { opacity: 1; } 67.273% { opacity: 0; } 74.545% { opacity: 0; } 80% { opacity: 1; } 100% { opacity: 1; } }
@keyframes a18_t { 0% { transform: translate(773px,445.8px); } 6% { transform: translate(773px,445.8px); } 14% { transform: translate(691.3px,445.8px); } 24% { transform: translate(691.3px,542.8px); } 30% { transform: translate(691.3px,542.8px); } 38% { transform: translate(691.3px,542.8px); } 40% { transform: translate(691.3px,542.8px); } 50% { transform: translate(691.3px,542.8px); } 60% { transform: translate(691.3px,542.8px); } 66% { transform: translate(691.3px,542.8px); } 76% { transform: translate(691.3px,445.8px); } 84% { transform: translate(773px,445.8px); } 90% { transform: translate(773px,445.8px); } 100% { transform: translate(776px,445.8px); } }
@keyframes a18_o { 0% { opacity: 0; } 6% { opacity: 1; } 14% { opacity: 1; } 24% { opacity: 1; } 30% { opacity: 0; } 38% { opacity: 0; } 40% { opacity: 0; } 50% { opacity: 0; } 60% { opacity: 0; } 66% { opacity: 1; } 84% { opacity: 1; } 90% { opacity: 0; } 100% { opacity: 0; } }
</style><ellipse cx="774.5" cy="512.5" fill="#fff" stroke="#000" rx="3" ry="3" stroke-miterlimit="10"/><ellipse cx="605.2" cy="582.2" fill="#fff" stroke="#000" rx="3" ry="3" stroke-miterlimit="10"/><ellipse cx="420.5" cy="506.8" fill="#fff" stroke="#000" rx="3" ry="3" stroke-miterlimit="10"/><ellipse cx="404.4" cy="198.7" fill="#fff" stroke="#000" rx="3" ry="3" stroke-miterlimit="10"/><ellipse cx="655.7" cy="121.3" fill="#fff" stroke="#000" rx="3" ry="3" stroke-miterlimit="10"/><ellipse cx="906" cy="121.3" fill="#fff" stroke="#000" rx="3" ry="3" stroke-miterlimit="10"/><ellipse cx="1107.2" cy="283.7" fill="#fff" stroke="#000" rx="3" ry="3" stroke-miterlimit="10"/><ellipse cx="1013.1" cy="443.8" fill="#fff" stroke="#000" rx="3" ry="3" stroke-miterlimit="10"/><ellipse cx="226.6" cy="348.6" fill="#fff" stroke="#000" rx="3" ry="3" stroke-miterlimit="10"/><g transform="translate(773.5,404.2) translate(-4,-4)" style="animation: 2s linear infinite both a0_t;"><path d="M4 0v8" fill="none" stroke="#000" stroke-miterlimit="10"/><path d="M0 4h8" fill="none" stroke="#000" stroke-miterlimit="10"/></g><g transform="translate(724.7,529.1) translate(-4,-4)" style="animation: 2s linear infinite both a1_t;"><path d="M4 0v8" fill="none" stroke="#000" stroke-miterlimit="10"/><path d="M0 4h8" fill="none" stroke="#000" stroke-miterlimit="10"/></g><g transform="translate(522.6,504.3) translate(-4,-4)" style="animation: 2s linear infinite both a2_t;"><path d="M4 0v8" fill="none" stroke="#000" stroke-miterlimit="10"/><path d="M0 4h8" fill="none" stroke="#000" stroke-miterlimit="10"/></g><g transform="translate(424.1,144.8) translate(-4,-4)" style="animation: 2s linear infinite both a3_t;"><path d="M4 0v8" fill="none" stroke="#000" stroke-miterlimit="10"/><path d="M0 4h8" fill="none" stroke="#000" stroke-miterlimit="10"/></g><g transform="translate(799.6,75) translate(-4,-4)" style="animation: 2s linear infinite both a4_t;"><path d="M4 0v8" fill="none" stroke="#000" stroke-miterlimit="10"/><path d="M0 4h8" fill="none" stroke="#000" stroke-miterlimit="10"/></g><path d="M887.4 247.7v8" fill="none" stroke="#000" stroke-miterlimit="10"/><path d="M883.4 251.7h8" fill="none" stroke="#000" stroke-miterlimit="10"/><g transform="translate(343.3,568.7) translate(-4,-4)" style="animation: 2s linear infinite both a5_t;"><path d="M4 0v8" fill="none" stroke="#000" stroke-miterlimit="10"/><path d="M0 4h8" fill="none" stroke="#000" stroke-miterlimit="10"/></g><g transform="translate(314.1,373.5) translate(-4,-4)" style="animation: 2s linear infinite both a6_t;"><path d="M4 0v8" fill="none" stroke="#000" stroke-miterlimit="10"/><path d="M0 4h8" fill="none" stroke="#000" stroke-miterlimit="10"/></g><path d="M396 551.2h127.1v127.2h-127.1Z" fill="#fff" stroke="#000" stroke-miterlimit="10"/><ellipse cx="460.5" cy="586.3" fill="#fff" rx="7.8" ry="4.1" stroke="#000" stroke-miterlimit="10"/><ellipse cx="498.9" cy="586.3" fill="#fff" rx="7.8" ry="4.1" stroke="#000" stroke-miterlimit="10"/><path d="M506.6 586.3c0 1.8-2.1 3.3-5.1 3.9c-1.7-2.3-1.7-5.4 0-7.7c3 .6 5.1 2.1 5.1 3.8Z" stroke="#000" stroke-miterlimit="10"/><path d="M468.3 586.3c0 1.8-2.2 3.3-5.1 3.8c-1.8-2.2-1.8-5.3 0-7.6c2.9 .6 5.1 2.1 5.1 3.8Z" stroke="#000" stroke-miterlimit="10"/><path d="M459.5 656.5l63.6-21.9v43.6c0 .1 0 .1 0 .1c-0.1 0-0.1 0-0.1 0Z" fill="#004790" stroke="#000" stroke-miterlimit="10"/><path d="M396 634.6l126.6 43.6c0 0 .1 0 .1 .1c0 0-0.1 .1-0.1 .1h-126.6Z" fill="#0086d9" stroke="#000" stroke-miterlimit="10"/><path d="M408.3 638.9h102.9l-51.7 17.6Z" stroke="#000" stroke-miterlimit="10"/><path d="M390.9 565.5h5.1v31.7h-5.1c-2.8 0-5-2.2-5-5v-21.7c0-2.8 2.2-5 5-5Z" fill="#002a6d" stroke="#000" stroke-miterlimit="10"/><path d="M528.2 597.2h-5.1v-31.7h5.1c2.8 0 5 2.2 5 5v21.7c0 2.8-2.2 5-5 5Z" fill="#002a6d" stroke="#000" stroke-miterlimit="10"/><path d="M528.1 531.2v4.2h-137.2v-4.2c0-1.6 1.3-3 3-3h131.2c1.7 0 3 1.4 3 3Z" fill="#002a6d" stroke="#000" stroke-miterlimit="10"/><path d="M528.1 565.5v-30.1" fill="none" stroke="#000" stroke-miterlimit="10"/><path d="M390.9 565.5v-30.1" fill="none" stroke="#000" stroke-miterlimit="10"/><path d="M390.9 597.2v14.6c0 1.7 1.3 3 3 3h35.9" fill="none" stroke="#000" stroke-miterlimit="10"/><rect x="429.8" y="612.6" height="4.5" rx="2" stroke="#000" width="11.3" stroke-miterlimit="10"/><path d="M545.9 564.3c-1 3.4-1 7 0 10.5c-6.9 31.3-22.8 33.7-22.8 33.7" fill="none" stroke="#000" stroke-miterlimit="10"/><path d="M552.2 564.3c0 0-0.6 6.9-6.3 10.5" fill="none" stroke="#000" stroke-miterlimit="10"/><path d="M555.6 568.8c0 0-3.4 7.1-9.7 6" fill="none" stroke="#000" stroke-miterlimit="10"/><path d="M407.4 615.8c-1.3 6.6 0 10.3 0 10.3c-9.9 10-23.1 4.9-23.3-6.3c-0.2-11.2 11.9-13.8 11.9-13.8" fill="none" stroke="#000" stroke-miterlimit="10"/><path d="M412.7 617c0 0-0.8 6.1-5.3 9.1" fill="none" stroke="#000" stroke-miterlimit="10"/><path d="M417.5 621.5c0 0-3.7 5.7-10.1 4.6" fill="none" stroke="#000" stroke-miterlimit="10"/><path d="M449.7 581.4c.7-2.2 2.6-3.7 4.8-4" fill="none" stroke="#000" stroke-miterlimit="10"/><path d="M508.3 581.4c0 0-0.6-3.4-4.9-4" fill="none" stroke="#000" stroke-miterlimit="10"/><path d="M613.7 531.3v17.4h-53.4l-8.1 7.1v-7.1h-4.5v-17.4Z" fill="#8f8fff" stroke="#000" stroke-miterlimit="10"/><path d="M572.3 506.8v17.4h53.3l8.2 7.1v-7.1h4.4v-17.4Z" fill="#e9e9ff" stroke="#000" stroke-miterlimit="10"/><path d="M873.4 572.8l95.9-145h-191.8Z" fill="#fff" stroke="#000" stroke-miterlimit="10"/><ellipse cx="828.1" cy="480.2" fill="#fff" rx="7" ry="3.7" stroke="#000" stroke-miterlimit="10"/><path d="M821.1 480.2c0 1.6 2 2.9 4.6 3.5c1.6-2.1 1.6-4.9 0-7c-2.6 .6-4.6 1.9-4.6 3.5Z" stroke="#000" stroke-miterlimit="10"/><ellipse cx="857.8" cy="480.2" fill="#fff" rx="7" ry="3.7" stroke="#000" stroke-miterlimit="10"/><path d="M850.9 480.2c0 1.6 1.9 2.9 4.6 3.4c1.5-2 1.5-4.8 0-6.9c-2.7 .6-4.6 1.9-4.6 3.5Z" stroke="#000" stroke-miterlimit="10"/><path d="M777.5 427.8l178.6 19.9l13.2-19.9Z" fill="#002a6d" stroke="#000" stroke-miterlimit="10"/><path d="M913 512.9l-58.6 31.2l19 28.7Z" stroke="#000" stroke-miterlimit="10"/><path d="M833.8 512.9l39.6 21.1l-19 10.1Z" fill="#002a6d" stroke="#000" stroke-miterlimit="10"/><path d="M873.4 525.2l14 7.1v-14.2Z" fill="#00a9ff" stroke="#000" stroke-miterlimit="10"/><path d="M873.4 525.2l-13.9 7.1v-14.2Z" fill="#00a9ff" stroke="#000" stroke-miterlimit="10"/><rect x="868.6" y="521.4" fill="#00a9ff" height="7.7" rx="2" stroke="#000" width="9.6" stroke-miterlimit="10"/><path d="M820.3 492.4c0 0-14.4 9.5-6.9 25.7c7.4 16.3 23.1 14.8 31.8 12c0 0 3.6 11.3-2.1 18.2" fill="none" stroke="#000" stroke-miterlimit="10"/><path d="M838.8 542.2c0 0 5.2-2 6.4-12.1" fill="none" stroke="#000" stroke-miterlimit="10"/><path d="M854.5 465.9c0 0 3.3-2.5 3.9 2.1" fill="none" stroke="#000" stroke-miterlimit="10"/><path d="M829.9 466.9c0 0-3.4-2.5-4 2.1" fill="none" stroke="#000" stroke-miterlimit="10"/><path d="M887.4 522.4h74.4v54.9h-74.4Z" fill="#8f8fff" stroke="#000" stroke-miterlimit="10"/><path d="M916 522.4h17.1v25.2h-17.1Z" fill="#fff" stroke="#000" stroke-miterlimit="10"/><path d="M906 482.2h79.5v40.2h-79.5Z" fill="#e9e9ff" stroke="#000" stroke-miterlimit="10"/><path d="M939.3 482.2h12.8v23.7h-12.8Z" fill="#fff" stroke="#000" stroke-miterlimit="10"/><path d="M965.7 514.3h15.7v4.4h-15.7Z" stroke="#000" stroke-miterlimit="10"/><path d="M942 569.2h15.7v4.4h-15.7Z" stroke="#000" stroke-miterlimit="10"/><path d="M968.8 540.1h45.6v37.2h-45.6Z" fill="#e9e9ff" stroke="#000" stroke-miterlimit="10"/><path d="M987.5 540.1h8.2v23h-8.2Z" fill="#fff" stroke="#000" stroke-miterlimit="10"/><path d="M1001.5 571.8h10.6v3h-10.6Z" stroke="#000" stroke-miterlimit="10"/><path d="M985.4 493.5c0 0 9.5 5.7 0 12.4c0 0-0.5 7-10.3 6.6" fill="none" stroke="#000" stroke-miterlimit="10"/><path d="M975.1 505.9c0 0 5.2 2.7 10.3 0" fill="none" stroke="#000" stroke-miterlimit="10"/><path d="M673.7 553.9h115.8v146.5h-115.8Z" fill="#fff" stroke="#000" stroke-miterlimit="10"/><path d="M673.7 636.2h115.8v64.1h-115.8Z" fill="#004790" stroke="#000" stroke-miterlimit="10"/><path d="M715.1 657.1h33v33h-33Z" fill="#00a9ff" stroke="#000" stroke-miterlimit="10"/><path d="M731.6 648.5l13.5-12.3h-27Z" stroke="#000" stroke-miterlimit="10"/><path d="M733.4 680.3l-5-12.2l-5 12.2" fill="none" stroke="#000" stroke-miterlimit="10"/><path d="M737.8 667v13.3" fill="none" stroke="#000" stroke-miterlimit="10"/><path d="M748.1 666.7h12.8l6.4-6.5h11.2" fill="none" stroke="#000" stroke-miterlimit="10"/><path d="M748.1 680.6h12.8l6.4 6.4h11.2" fill="none" stroke="#000" stroke-miterlimit="10"/><path d="M748.1 673.6h30.4" fill="none" stroke="#000" stroke-miterlimit="10"/><ellipse cx="778.5" cy="673.6" fill="#00a9ff" stroke="#000" rx="1.5" ry="1.5" stroke-miterlimit="10"/><ellipse cx="778.5" cy="687" fill="#00a9ff" stroke="#000" rx="1.5" ry="1.5" stroke-miterlimit="10"/><ellipse cx="778.5" cy="660.2" fill="#00a9ff" stroke="#000" rx="1.5" ry="1.5" stroke-miterlimit="10"/><path d="M715.1 666.7h-12.8l-6.4-6.5h-11.2" fill="none" stroke="#000" stroke-miterlimit="10"/><path d="M715.1 680.6h-12.8l-6.4 6.4h-11.2" fill="none" stroke="#000" stroke-miterlimit="10"/><path d="M715.1 673.6h-30.4" fill="none" stroke="#000" stroke-miterlimit="10"/><ellipse cx="684.8" cy="673.6" fill="#00a9ff" stroke="#000" rx="1.5" ry="1.5" stroke-miterlimit="10"/><ellipse cx="684.8" cy="687" fill="#00a9ff" stroke="#000" rx="1.5" ry="1.5" stroke-miterlimit="10"/><ellipse cx="684.8" cy="660.2" fill="#00a9ff" stroke="#000" rx="1.5" ry="1.5" stroke-miterlimit="10"/><path d="M722.2 592.2h9.4v9.5h-9.4Z" fill="#fff" stroke="#000" stroke-miterlimit="10"/><path d="M722.2 592.2h4.7v4.7h-4.7Z" stroke="#000" stroke-miterlimit="10"/><path d="M687.6 592.2h9.5v9.5h-9.5Z" fill="#fff" stroke="#000" stroke-miterlimit="10"/><path d="M687.6 592.2h4.7v4.7h-4.7Z" stroke="#000" stroke-miterlimit="10"/><path d="M789.5 617.9c0 0 14.9 4 13.2 36.4c0 0 7.5 2 7.2 12.4" fill="#fff" stroke="#000" stroke-miterlimit="10"/><path d="M804.9 668c.4-4.7-0.3-9.4-2.2-13.8c0 0-4.8 6.8-3 14.5" fill="#fff" stroke="#000" stroke-miterlimit="10"/><path d="M631.6 637.1h-22.4l-11.2 19.4l11.2 19.4h22.4l11.2-19.4Z" fill="#8f8fff" stroke="#000" stroke-miterlimit="10"/><path d="M641.3 641.5l-6.1-10.6h-14.8" fill="none" stroke="#000" stroke-miterlimit="10"/><path d="M598.8 670.1l6.9 11.9h14.7" fill="none" stroke="#000" stroke-miterlimit="10"/><path d="M655.4 665.6h-8.4l-4.2 7.3l4.2 7.3h8.4l4.2-7.3Z" fill="#e9e9ff" stroke="#000" stroke-miterlimit="10"/><path d="M591.5 624.8h-13.2l-6.5 11.4l6.5 11.4h13.2l6.5-11.4Z" fill="#e9e9ff" stroke="#000" stroke-miterlimit="10"/><ellipse cx="635.2" cy="630.9" fill="#fff" stroke="#000" rx="1.5" ry="1.5" stroke-miterlimit="10"/><ellipse cx="605.7" cy="682" fill="#fff" stroke="#000" rx="1.5" ry="1.5" stroke-miterlimit="10"/><path d="M673.7 625.7c0 0-4.9 15.8-22.5 19.6c0 0 .8 7.2-5 11.2" fill="none" stroke="#000" stroke-miterlimit="10"/><path d="M644.1 651.5c3.4-1.4 7.1-6.2 7.1-6.2c0 0-3.5-2.9-10-0.9" fill="none" stroke="#000" stroke-miterlimit="10"/><path d="M165 415.2h182.9v117.9h-182.9Z" fill="#fff" stroke="#000" stroke-miterlimit="10"/><ellipse cx="284.6" cy="465.6" fill="#fff" rx="7.4" ry="3.9" stroke="#000" stroke-miterlimit="10"/><ellipse cx="323.3" cy="465.6" fill="#fff" rx="7.4" ry="3.9" stroke="#000" stroke-miterlimit="10"/><path d="M330.7 465.6c0 1.7-2 3.1-4.9 3.6c-1.6-2.1-1.6-5.1 0-7.3c2.9 .6 4.9 2 4.9 3.7Z" stroke="#000" stroke-miterlimit="10"/><path d="M292 465.6c0 1.6-2 3.1-4.9 3.6c-1.7-2.1-1.7-5.1 0-7.3c2.9 .6 4.9 2 4.9 3.7Z" stroke="#000" stroke-miterlimit="10"/><path d="M320.8 450c0 0 5.1-0.9 7 2.6" fill="#fff" stroke="#000" stroke-miterlimit="10"/><path d="M285.6 450c-0.1 0-5.2-0.9-7.1 2.6" fill="#fff" stroke="#000" stroke-miterlimit="10"/><path d="M165 504.3h182.9v28.8h-182.9Z" fill="#002a6d" stroke="#000" stroke-miterlimit="10"/><path d="M299.6 525.3l28.1-21h-56.2Z" fill="#00a9ff" stroke="#000" stroke-miterlimit="10"/><path d="M198.4 394.2h75.9v21h-75.9Z" stroke="#000" stroke-miterlimit="10"/><path d="M236.4 407.4l53.5-13.2h-107Z" fill="#002a6d" stroke="#000" stroke-miterlimit="10"/><path d="M236.4 407.4v19.6" fill="none" stroke="#000" stroke-miterlimit="10"/><path d="M236.4 427l-4.2 7.2h8.3Z" fill="#00a9ff" stroke="#000" stroke-miterlimit="10"/><path d="M347.9 489.7c0 0 15.4 11.1 15.7 27.3c0 0 7.3-2.7 13 4.6" fill="none" stroke="#000" stroke-miterlimit="10"/><path d="M371.4 524.4c-1.9-7.6-7.8-7.4-7.8-7.4c0 0-3.6 3.3-1.3 11.2" fill="none" stroke="#000" stroke-miterlimit="10"/><path d="M118.1 519.7h93.2v29h-93.2Z" fill="#e9e9ff" stroke="#000" stroke-miterlimit="10"/><path d="M109.3 499.1h90v20.6h-90Z" fill="#8f8fff" stroke="#000" stroke-miterlimit="10"/><path d="M118.1 530.3h93.2v7.9h-93.2Z" stroke="#000" stroke-miterlimit="10"/><path d="M125.8 499.1h8.1v20.6h-8.1Z" stroke="#000" stroke-miterlimit="10"/><path d="M174.7 499.1h8.1v20.6h-8.1Z" stroke="#000" stroke-miterlimit="10"/><path d="M125.8 446.7h46.3v52.4h-46.3Z" fill="#e9e9ff" stroke="#000" stroke-miterlimit="10"/><path d="M125.8 446.7h5.6v52.4h-5.6Z" fill="#8f8fff" stroke="#000" stroke-miterlimit="10"/><path d="M156.8 439.2l-30.4 7.3c-0.1 0-0.1 .1-0.1 .1c0 0 0 .1 .1 .1h30.3Z" stroke="#000" stroke-miterlimit="10"/><path d="M128.5 491.5c0 0-9.5-7.9-3-11.8c0 0 4-4 11.8-1" fill="none" stroke="#000" stroke-miterlimit="10"/><path d="M125.5 479.7c0 0 3.7-0.6 8.4 5.7" fill="none" stroke="#000" stroke-miterlimit="10"/><path d="M362.5 193.6l-95.9 145h191.8Z" fill="#fff" stroke="#000" stroke-miterlimit="10"/><path d="M458.4 338.6h-191.8l24.3-36.8h143.1Z" fill="#004790" stroke="#000" stroke-miterlimit="10"/><path d="M368.1 338.6h-11.2l-23-36.8h57.1Z" fill="#fff" stroke="#000" stroke-miterlimit="10"/><path d="M365.5 310.3h-6.1l-5.5-8.5h17.2Z" fill="#00a9ff" stroke="#000" stroke-miterlimit="10"/><path d="M369.5 325.9l-7 7.2l-7.1-7.2l4-15.6h6.1Z" fill="#00a9ff" stroke="#000" stroke-miterlimit="10"/><path d="M368.1 338.2l22.9-36.2c0 0 .1-0.1 .1-0.1c0 0 .1 .1 .1 .1l6.3 17.3l-29.3 19.1c-0.1 0-0.2-0.1-0.1-0.2Z" stroke="#000" stroke-miterlimit="10"/><path d="M356.9 338.2l-23-36.2c0 0-0.1-0.1-0.1-0.1c0 0-0.1 .1-0.1 .1l-6.3 17.3l29.3 19.1c.1 0 .2-0.1 .2-0.2Z" stroke="#000" stroke-miterlimit="10"/><ellipse cx="388.1" cy="255.9" fill="#fff" rx="7" ry="3.7" stroke="#000" stroke-miterlimit="10"/><ellipse cx="360.4" cy="255.9" fill="#fff" rx="7" ry="3.7" stroke="#000" stroke-miterlimit="10"/><path d="M354.1 248.4c1.9-1.6 4.6-2 7-1" fill="none" stroke="#000" stroke-miterlimit="10"/><path d="M392.8 248.4c-2-1.6-4.7-2-7-1" fill="none" stroke="#000" stroke-miterlimit="10"/><path d="M413.1 270.3c14.2 .6 30.2 15.4 14 17.1c-11.8 1.1-16-7.8-33.2-3.6c0 0-10.5-2.3-14.9 3.1" fill="none" stroke="#000" stroke-miterlimit="10"/><path d="M385.1 290.5c0 0 3.2-5.7 8.8-6.7c0 0 1.9 5.5-1.7 10" fill="none" stroke="#000" stroke-miterlimit="10"/><path d="M166.9 165.7h101.5v130.1h-101.5Z" fill="#e9e9ff" stroke="#000" stroke-miterlimit="10"/><path d="M205.4 188.2h101.5v130.1h-101.5Z" fill="#fff" stroke="#000" stroke-miterlimit="10"/><path d="M205.4 188.2h101.5v21h-101.5Z" fill="#8f8fff" stroke="#000" stroke-miterlimit="10"/><path d="M218.3 224.5h75.7v25.3h-75.7Z" fill="#e9e9ff" stroke="#000" stroke-miterlimit="10"/><ellipse cx="221.3" cy="198.7" stroke="#000" rx="3" ry="3" stroke-miterlimit="10"/><ellipse cx="232.7" cy="198.7" stroke="#000" rx="3" ry="3" stroke-miterlimit="10"/><ellipse cx="244.1" cy="198.7" stroke="#000" rx="3" ry="3" stroke-miterlimit="10"/><path d="M218.3 263.8h75.7" fill="none" stroke="#000" stroke-miterlimit="10"/><path d="M218.3 277.9h37.8" fill="none" stroke="#000" stroke-miterlimit="10"/><ellipse cx="304.4" cy="154.8" fill="#8f8fff" stroke="#000" rx="15" ry="15" stroke-miterlimit="10"/><ellipse cx="304.4" cy="154.8" fill="#8f8fff" stroke="#000" rx="10" ry="10" stroke-miterlimit="10"/><path d="M395 255.9c-0.1 1-0.7 1.9-1.6 2.3c-3-0.4-5.2-2.9-5.4-6c3.9 .1 7 1.7 7 3.7Z" stroke="#000" stroke-miterlimit="10"/><path d="M367.3 255.9c-0.1 1-0.6 1.9-1.5 2.3c-3-0.4-5.3-2.9-5.4-6c3.8 .1 6.9 1.7 6.9 3.7Z" stroke="#000" stroke-miterlimit="10"/><path d="M475.5 123.2h143v142.9h-143Z" fill="#fff" stroke="#000" stroke-miterlimit="10"/><path d="M475.5 123.2h143v17.1h-143Z" fill="#004790" stroke="#000" stroke-miterlimit="10"/><ellipse cx="547" cy="123.2" fill="#8f8fff" stroke="#000" rx="22.8" ry="22.8" stroke-miterlimit="10"/><ellipse cx="547" cy="123.2" fill="#8f8fff" stroke="#000" rx="10.2" ry="10.2" stroke-miterlimit="10"/><path d="M527.6 266.1h-52.1v-75.5l52.1 30.9Z" fill="#004790" stroke="#000" stroke-miterlimit="10"/><path d="M566.5 266.1h52v-75.5l-52 30.9Z" fill="#004790" stroke="#000" stroke-miterlimit="10"/><path d="M475.9 190.9l51.4 30.5c0 0 0 0 0 0c0 .1 0 .1 0 .1h-32l-19.5-30.5c-0.1 0-0.1-0.1 0-0.1c0-0.1 .1-0.1 .1 0Z" fill="#00a9ff" stroke="#000" stroke-miterlimit="10"/><path d="M618.1 190.9l-51.3 30.5c-0.1 0-0.1 0-0.1 .1c0 0 .1 0 .1 0h32l19.5-30.5c0-0.1-0.1-0.2-0.2-0.1Z" fill="#00a9ff" stroke="#000" stroke-miterlimit="10"/><path d="M527.6 245.4h38.9v20.7h-38.9Z" stroke="#000" stroke-miterlimit="10"/><path d="M573.5 237.7h8.5" fill="none" stroke="#000" stroke-miterlimit="10"/><path d="M573.5 253.9h8.5" fill="none" stroke="#000" stroke-miterlimit="10"/><ellipse cx="518.2" cy="237.7" stroke="#000" rx="2.5" ry="2.5" stroke-miterlimit="10"/><ellipse cx="518.2" cy="253.9" stroke="#000" rx="2.5" ry="2.5" stroke-miterlimit="10"/><ellipse cx="550.2" cy="181" fill="#fff" rx="7" ry="3.7" stroke="#000" stroke-miterlimit="10"/><ellipse cx="512.3" cy="181" fill="#fff" rx="7" ry="3.7" stroke="#000" stroke-miterlimit="10"/><path d="M475.5 206.2c0 0-18.3 12.1-15 38.1c0 0-2.8 7.7-0.4 15.6" fill="none" stroke="#000" stroke-miterlimit="10"/><path d="M466.9 256c-1-7.4-5-10.7-6.1-11.4c-0.1-0.1-0.1-0.1-0.1-0.2c0 0 .1 0 .1 0c1.7 .1 9 .8 11 6.7" fill="none" stroke="#000" stroke-miterlimit="10"/><path d="M618.5 198.9c0 0 18.3 16.2 16.7 36.3c0 0 9.3 1.4 11.2 12.1" fill="none" stroke="#000" stroke-miterlimit="10"/><path d="M640.7 248.6c-0.6-4.9-2.5-9.5-5.5-13.4c0 0-5 3.4-1.8 16.2" fill="none" stroke="#000" stroke-miterlimit="10"/><path d="M555.4 170.7c0 0 4.6-0.2 5.9 3.6" fill="none" stroke="#000" stroke-miterlimit="10"/><path d="M508.3 170.7c0 0-4.7-0.2-5.9 3.6" fill="none" stroke="#000" stroke-miterlimit="10"/><path d="M513 183.7c0 .3 0 .7-0.1 1c-0.2 0-0.4 0-0.6 0c-3.8 0-7-1.6-7-3.6c0-1.3 1.3-2.5 3.3-3.1c2.6 .7 4.4 3 4.4 5.7Z" stroke="#000" stroke-miterlimit="10"/><path d="M550.9 183.7c0 .3 0 .7-0.1 1c-0.2 0-0.4 0-0.6 0c-3.8 0-7-1.6-7-3.6c0-1.3 1.3-2.5 3.3-3.1c2.6 .7 4.4 3 4.4 5.7Z" stroke="#000" stroke-miterlimit="10"/><path d="M706.7 138.6h121.9v173h-121.9Z" fill="#fff" stroke="#000" stroke-miterlimit="10"/><path d="M706.7 207.8h121.9v103.8h-121.9Z" fill="#0086d9" stroke="#000" stroke-miterlimit="10"/><path d="M706.7 217.3h15.5v47h-15.5Z" fill="#fff" stroke="#000" stroke-miterlimit="10"/><path d="M813.2 217.3h15.4v47h-15.4Z" fill="#fff" stroke="#000" stroke-miterlimit="10"/><ellipse cx="767.7" cy="229.9" stroke="#000" rx="3" ry="3" stroke-miterlimit="10"/><ellipse cx="767.7" cy="251.7" stroke="#000" rx="3" ry="3" stroke-miterlimit="10"/><path d="M706.7 228.4c0 0-34.2-6.7-21.7-53c-2.3-4.9-2.4-10.6-0.1-15.5" fill="none" stroke="#000" stroke-miterlimit="10"/><path d="M690.6 161.9c-6.1 6.7-5.6 13.5-5.6 13.5c0 0 6.1-0.8 11.2-9.6" fill="none" stroke="#000" stroke-miterlimit="10"/><path d="M857.3 166.4h21.5v41.4h-21.5Z" fill="#8f8fff" stroke="#000" stroke-miterlimit="10"/><path d="M828.6 224.3c0 0 23.9 15.2 33.8-14.8c0 0 5.4 3.5 10.9-8.4" fill="none" stroke="#000" stroke-miterlimit="10"/><path d="M867.8 199.3c-1.1 8.5-5.4 10.2-5.4 10.2c0 0-4.5-0.8-2.2-11.1" fill="none" stroke="#000" stroke-miterlimit="10"/><path d="M870.6 170.1h4.5v7.6h-4.5Z" stroke="#000" stroke-miterlimit="10"/><ellipse cx="764.1" cy="179.4" fill="#fff" rx="7.4" ry="3.9" stroke="#000" stroke-miterlimit="10"/><ellipse cx="802.8" cy="179.4" fill="#fff" rx="7.4" ry="3.9" stroke="#000" stroke-miterlimit="10"/><path d="M810.2 179.4c0 1.7-2 3.1-4.9 3.7c-1.7-2.2-1.7-5.2 0-7.4c2.8 .6 4.9 2 4.9 3.7Z" stroke="#000" stroke-miterlimit="10"/><path d="M771.5 179.4c0 1.7-2 3.1-4.9 3.6c-1.7-2.1-1.7-5.1 0-7.3c2.8 .6 4.9 2 4.9 3.7Z" stroke="#000" stroke-miterlimit="10"/><path d="M760.9 168.9c0 0 3.2-5.9 6.3 0" fill="none" stroke="#000" stroke-miterlimit="10"/><path d="M799.6 168.9c0 0 3.2-5.9 6.3 0" fill="none" stroke="#000" stroke-miterlimit="10"/><path d="M742.5 84.5v16.6h-8.7l-5.3 5.7l-5.4-5.7h-8.6v-16.5Z" fill="#e9e9ff" stroke="#000" stroke-miterlimit="10"/><path d="M728.5 90.8c0 0 2.7-2.8 4.5-0.3c2.3 3.4-4.5 7.6-4.5 7.6c0 0-6.9-4.2-4.5-7.6c1.7-2.5 4.5 .3 4.5 .3Z" stroke="#000" stroke-miterlimit="10"/><path d="M867.4 119v16.5h-6.7l-4.3 5.7l-4.4-5.7h-6.7v-16.5Z" fill="#e9e9ff" stroke="#000" stroke-miterlimit="10"/><ellipse cx="856.4" cy="124.3" stroke="#000" rx="2" ry="2" stroke-miterlimit="10"/><path d="M856.3 127.2c2.3 0 4 1.8 4 4l-8 .1c0-2.3 1.8-4 4-4Z" stroke="#000" stroke-miterlimit="10"/><path d="M899.7 286.7h171.3v112.6h-171.3Z" fill="#fff" stroke="#000" stroke-miterlimit="10"/><path d="M899.7 376.5h171.3v22.8h-171.3Z" fill="#004790" stroke="#000" stroke-miterlimit="10"/><path d="M924.5 326.4c0 .1 6.4 12 28.3 .1" fill="#fff" stroke="#000" stroke-miterlimit="10"/><path d="M1002.6 326.4c0 .1-6.4 12-28.3 .1" fill="#fff" stroke="#000" stroke-miterlimit="10"/><path d="M954.1 309.8c0 0-1.1-7.7-8.2 0" fill="#fff" stroke="#000" stroke-miterlimit="10"/><path d="M972.3 309.8c0 0 1.1-7.7 8.2 0" fill="#fff" stroke="#000" stroke-miterlimit="10"/><path d="M991.5 286.7c0 0 13.1-6.4 7.1-19.6c-6.1-13.2-30.8-14.1-44.5-2.1c-13.3 11.6-23.4 4.3-18.2-10.3c0 0-9.3 10.6-2.4 21.9c6.3 10.1 20.6 10.1 20.6 10.1Z" stroke="#000" stroke-miterlimit="10"/><path d="M963 346.9c0 0 2.5-3.5 7.5 0c5 3.4 14.6 13.9 33.2 6.2c0 0-11.8 13.9-23.8 6.1c-8.8-5.6-9.4-13.8-16.9-12.3Z" stroke="#000" stroke-miterlimit="10"/><path d="M960.4 346.9c0 0-2.5-3.5-7.5 0c-4.9 3.4-14.6 13.9-33.2 6.2c0 0 11.8 13.9 23.9 6.1c8.8-5.6 9.4-13.8 16.8-12.3Z" stroke="#000" stroke-miterlimit="10"/><path d="M979.8 376.6l-17.9 18l-18-18Z" fill="#fff" stroke="#000" stroke-miterlimit="10"/><path d="M963.9 381.9h-3.9l-3.5-5.4h10.9Z" fill="#00a9ff" stroke="#000" stroke-miterlimit="10"/><path d="M966.4 391.8l-4.5 4.6l-4.5-4.6l2.6-9.9h3.9Z" fill="#00a9ff" stroke="#000" stroke-miterlimit="10"/><path d="M944 376.6l17.9 18l-1.5 1.6l-21.4-10.9l4.8-8.7c.1 0 .1-0.1 .1-0.1c0 0 .1 0 .1 .1Z" stroke="#000" stroke-miterlimit="10"/><path d="M979.8 376.6l-22 22.2c0 .1 0 .1 0 .2c0 0 .1 0 .1 0l26.9-13.7l-4.8-8.7c0-0.1-0.1-0.1-0.1-0.1c0 0-0.1 0-0.1 .1Z" stroke="#000" stroke-miterlimit="10"/><ellipse cx="995.9" cy="387.9" fill="#8f8fff" stroke="#000" rx="6.2" ry="6.2" stroke-miterlimit="10"/><path d="M992.6 382.6c0 0-2.9 6 1.4 8.2c4 2 6.6-3.6 4.7-5c-2.6-1.8-3.5 1.7-3.5 1.7" fill="none" stroke="#000" stroke-miterlimit="10"/><path d="M1107.3 387.9h-12.1c-15.2 0-24.3-14.9-15.9-26.2l11.9-16h20.1l12 16c8.3 11.3-0.8 26.2-16 26.2Z" fill="#e9e9ff" stroke="#000" stroke-miterlimit="10"/><path d="M1120.1 332.8l-8.8 12.9h-20.1l-8.8-12.9h9.8l1.8 2.6h2.8v-2.6h9v2.6h2.8l1.8-2.6Z" fill="#e9e9ff" stroke="#000" stroke-miterlimit="10"/><path d="M1101.3 377.4c3.3 0 6-2.4 6-5.3c0-2.9-2.7-5.3-6-5.3c-3.3 0-6-2.4-6-5.3c0-2.9 2.6-5.2 6-5.2c3.3 0 6 2.3 6 5.2" fill="none" stroke="#000" stroke-miterlimit="10"/><path d="M1101.3 377.4c-3.3 0-6-2.4-6-5.3" fill="none" stroke="#000" stroke-miterlimit="10"/><path d="M1101.3 353.6v26.4" fill="none" stroke="#000" stroke-miterlimit="10"/><path d="M1135.5 404h-12.1c-15.2 0-24.3-14.9-16-26.1l11.9-16h20.2l11.9 16c8.3 11.2-0.8 26.1-16 26.1Z" fill="#8f8fff" stroke="#000" stroke-miterlimit="10"/><path d="M1148.2 348.9l-8.7 13h-20.2l-8.7-13h9.7l1.8 2.7h2.8v-2.7h9v2.7h2.8l1.8-2.7Z" fill="#8f8fff" stroke="#000" stroke-miterlimit="10"/><path d="M1129.4 393.5c3.3 0 6-2.4 6-5.3c0-2.9-2.7-5.2-6-5.2c-3.3-0.1-6-2.4-6-5.3c0-2.9 2.7-5.3 6-5.3c3.3 0 6 2.4 6 5.3" fill="none" stroke="#000" stroke-miterlimit="10"/><path d="M1129.4 393.5c-3.3 0-6-2.4-6-5.3" fill="none" stroke="#000" stroke-miterlimit="10"/><path d="M1129.4 369.8v26.3" fill="none" stroke="#000" stroke-miterlimit="10"/><path d="M1071 355.1c0 0 21.3 5.2 21 30c0 0 7 1.6 7.7 11.1" fill="none" stroke="#000" stroke-miterlimit="10"/><path d="M1095.6 396.2c-0.1-7.7-3.6-11.1-3.6-11.1c-2.9 2.9-4.4 7-4 11.1" fill="none" stroke="#000" stroke-miterlimit="10"/><path d="M847.4 314.1l30.5-7.9l10 38.4l-30.5 7.9Z" fill="#8f8fff" stroke="#000" stroke-miterlimit="10"/><path d="M852.4 318.1l23-6l1.7 6.3l-23 6Z" stroke="#000" stroke-miterlimit="10"/><path d="M855.1 328.4l23-6l4.5 17.3l-23 6Z" fill="#fff" stroke="#000" stroke-miterlimit="10"/><path d="M860.9 326.8l4.5 17.3" fill="none" stroke="#000" stroke-miterlimit="10"/><path d="M866.6 325.3l4.5 17.3" fill="none" stroke="#000" stroke-miterlimit="10"/><path d="M872.4 323.9l4.5 17.2" fill="none" stroke="#000" stroke-miterlimit="10"/><path d="M856.6 334.1l23-6" fill="none" stroke="#000" stroke-miterlimit="10"/><path d="M858.1 339.8l23-5.9" fill="none" stroke="#000" stroke-miterlimit="10"/><path d="M899.7 357.6c0 0-10 14.7-26-3.5c0 0-4.8-0.7-6.6-8.8" fill="none" stroke="#000" stroke-miterlimit="10"/><path d="M873.7 354.1c0 0 2-4.6-0.8-10.7" fill="none" stroke="#000" stroke-miterlimit="10"/><path d="M391 361.8v88.1h63.4l.1 70.4" fill="none" stroke="#141464" stroke-miterlimit="10"/><path d="M391 485.4h347.3v-140" fill="none" stroke="#141464" stroke-miterlimit="10"/><path d="M498.9 520.3v-101.1h97.6v-133.9" fill="none" stroke="#141464" stroke-miterlimit="10"/><path d="M508.3 285.3v88.2h379.1" fill="none" stroke="#141464" stroke-miterlimit="10"/><path d="M691.3 542.8v-97h81.7" fill="none" stroke="#141464" stroke-miterlimit="10"/><ellipse cx="773" cy="445.6" fill="#fff" stroke="#4141d8" rx="3" ry="3" stroke-miterlimit="10"/><ellipse cx="691.3" cy="542.8" fill="#fff" stroke="#4141d8" rx="3" ry="3" stroke-miterlimit="10"/><ellipse cx="691.3" cy="445.8" fill="#fff" stroke="#4141d8" rx="3" ry="3" stroke-miterlimit="10"/><ellipse cx="887.4" cy="373.3" fill="#fff" stroke="#4141d8" rx="3" ry="3" stroke-miterlimit="10"/><ellipse cx="738.3" cy="345.4" fill="#fff" stroke="#4141d8" rx="3" ry="3" stroke-miterlimit="10"/><ellipse cx="738.3" cy="485.4" fill="#fff" stroke="#4141d8" rx="3" ry="3" stroke-miterlimit="10"/><ellipse cx="391" cy="485.4" fill="#fff" stroke="#4141d8" rx="3" ry="3" stroke-miterlimit="10"/><ellipse cx="391" cy="361.8" fill="#fff" stroke="#4141d8" rx="3" ry="3" stroke-miterlimit="10"/><ellipse cx="391" cy="449.9" fill="#fff" stroke="#141464" rx="3" ry="3" stroke-miterlimit="10"/><ellipse cx="454.4" cy="449.9" fill="#fff" stroke="#4141d8" rx="3" ry="3" stroke-miterlimit="10"/><ellipse cx="454.4" cy="520.3" fill="#fff" stroke="#4141d8" rx="3" ry="3" stroke-miterlimit="10"/><ellipse cx="498.9" cy="520.3" fill="#fff" stroke="#4141d8" rx="3" ry="3" stroke-miterlimit="10"/><ellipse cx="498.9" cy="419.2" fill="#fff" stroke="#4141d8" rx="3" ry="3" stroke-miterlimit="10"/><ellipse cx="596.5" cy="419.2" fill="#fff" stroke="#4141d8" rx="3" ry="3" stroke-miterlimit="10"/><ellipse cx="596.5" cy="285.3" fill="#fff" stroke="#4141d8" rx="3" ry="3" stroke-miterlimit="10"/><ellipse fill="#fff" stroke="#4141d8" rx="3" ry="3" stroke-miterlimit="10" transform="translate(508.3,285.3)"/><ellipse cx="508.3" cy="373.5" fill="#fff" stroke="#4141d8" rx="3" ry="3" stroke-miterlimit="10"/><g transform="translate(148.4,604.8) translate(-140.7,-41.8)" style="animation: 3.4s linear infinite both a11_t;"><path d="M281.3 21.9v61.7h-281.3v-61.7h135.9l21.2-21.9v21.9Z" fill="#fff" stroke="#141464" stroke-miterlimit="10"/><path d="M25.7 59.9h-1.3c-0.4 0-0.7-0.1-1-0.2c-0.3-0.1-0.6-0.3-0.8-0.5c-0.2-0.2-0.4-0.5-0.5-0.8c-0.1-0.3-0.2-0.6-0.2-1v-3.7c0-0.5-0.1-0.8-0.4-1c-0.3-0.1-0.7-0.2-1.2-0.2v-1.6c.5 0 .9-0.1 1.2-0.2c.3-0.2 .4-0.5 .4-1v-3.7c0-0.4 .1-0.7 .2-1c.1-0.3 .3-0.6 .5-0.8c.2-0.2 .5-0.4 .8-0.5c.3-0.1 .6-0.2 1-0.2h1.3v1.6h-1.3c-0.4 0-0.6 .1-0.7 .2c-0.1 .1-0.2 .4-0.2 .7v3.7c0 .6-0.1 1-0.5 1.4c-0.3 .3-0.7 .5-1.1 .6c.2 0 .4 .1 .6 .2c.2 .1 .4 .2 .5 .4c.2 .2 .3 .4 .4 .6c.1 .2 .1 .5 .1 .8v3.7c0 .3 .1 .5 .2 .6c.1 .2 .3 .2 .7 .2h1.3Z" fill="#090926"/><path d="M35.3 45.1l-0.4 4.4h-1.4l-0.4-4.4Zm-3.3 0l-0.4 4.4h-1.4l-0.4-4.4Z" fill="#090926"/><path d="M45.2 56.6h-5.5v-1.6h1.8v-8.2h-1.8v-1.7h3.6v9.9h1.9Z" fill="#090926"/><path d="M49.8 53.2c.1 .6 .3 1 .8 1.4c.4 .4 1 .5 1.8 .5c.6 0 1.1 0 1.5-0.2c.5-0.2 .8-0.5 1.2-0.8l.9 1.3c-0.5 .5-1.1 .9-1.7 1.1c-0.6 .2-1.2 .3-1.9 .3c-0.6 0-1.2-0.1-1.8-0.3c-0.5-0.2-1-0.5-1.4-0.9c-0.4-0.4-0.7-0.8-0.9-1.4c-0.3-0.5-0.4-1.1-0.4-1.7c0-0.6 .1-1.2 .3-1.7c.3-0.5 .5-1 .9-1.4c.4-0.4 .9-0.7 1.4-0.9c.5-0.2 1.1-0.3 1.7-0.3c.7 0 1.3 .1 1.8 .3c.6 .3 1 .6 1.4 1c.4 .5 .7 1 .9 1.6c.2 .6 .3 1.3 .3 2.1Zm4.8-1.6c-0.1-0.5-0.4-1-0.8-1.3c-0.5-0.3-1-0.5-1.6-0.5c-0.5 0-1.1 .2-1.5 .5c-0.5 .3-0.7 .8-0.8 1.3Z" fill="#090926"/><path d="M65.9 54.1c0 .6-0.1 1-0.4 1.3c-0.2 .4-0.5 .6-0.9 .8c-0.4 .3-0.8 .4-1.3 .5c-0.4 .1-0.9 .1-1.3 .1c-0.8 0-1.5-0.1-2.2-0.3c-0.8-0.2-1.4-0.5-2-0.9l.8-1.5c.6 .4 1.2 .7 1.8 .8c.5 .2 1 .2 1.6 .2c.7 0 1.3 0 1.6-0.2c.3-0.1 .5-0.4 .5-0.6c0-0.2-0.1-0.3-0.2-0.4c0-0.1-0.2-0.1-0.4-0.2c-0.2-0.1-0.5-0.2-0.9-0.2c-0.3-0.1-0.8-0.2-1.3-0.3c-0.4 0-0.8-0.1-1.2-0.2c-0.4-0.1-0.7-0.3-1-0.5c-0.3-0.1-0.5-0.4-0.7-0.7c-0.2-0.3-0.2-0.6-0.2-1c0-0.5 .1-0.9 .3-1.2c.2-0.3 .5-0.6 .9-0.8c.3-0.2 .8-0.4 1.2-0.5c.5 0 .9-0.1 1.4-0.1c.6 0 1.3 .1 1.9 .3c.6 .1 1.1 .4 1.6 .7l-0.8 1.4c-0.4-0.3-0.9-0.5-1.3-0.6c-0.4-0.1-0.9-0.2-1.4-0.2c-0.2 0-0.5 .1-0.7 .1c-0.2 0-0.4 0-0.6 .1c-0.2 .1-0.4 .2-0.5 .3c-0.2 .1-0.2 .2-0.2 .4c0 .2 .2 .4 .5 .5c.4 .2 1.1 .3 2 .4c.5 .1 1 .2 1.4 .3c.4 .1 .8 .3 1.1 .5c.3 .1 .5 .4 .7 .7c.1 .3 .2 .6 .2 1Z" fill="#090926"/><path d="M75.7 54.1c0 .6-0.1 1-0.3 1.3c-0.3 .4-0.6 .6-1 .8c-0.3 .3-0.8 .4-1.2 .5c-0.5 .1-0.9 .1-1.4 .1c-0.7 0-1.5-0.1-2.2-0.3c-0.7-0.2-1.4-0.5-1.9-0.9l.7-1.5c.7 .4 1.3 .7 1.8 .8c.5 .2 1.1 .2 1.6 .2c.7 0 1.3 0 1.6-0.2c.3-0.1 .5-0.4 .5-0.6c0-0.2 0-0.3-0.1-0.4c-0.1-0.1-0.3-0.1-0.5-0.2c-0.2-0.1-0.5-0.2-0.9-0.2c-0.3-0.1-0.7-0.2-1.3-0.3c-0.4 0-0.8-0.1-1.2-0.2c-0.4-0.1-0.7-0.3-1-0.5c-0.3-0.1-0.5-0.4-0.7-0.7c-0.1-0.3-0.2-0.6-0.2-1c0-0.5 .1-0.9 .3-1.2c.2-0.3 .5-0.6 .9-0.8c.4-0.2 .8-0.4 1.2-0.5c.5 0 1-0.1 1.4-0.1c.7 0 1.3 .1 1.9 .3c.6 .1 1.1 .4 1.6 .7l-0.7 1.4c-0.5-0.3-0.9-0.5-1.4-0.6c-0.4-0.1-0.9-0.2-1.4-0.2c-0.2 0-0.4 .1-0.7 .1c-0.2 0-0.4 0-0.6 .1c-0.2 .1-0.4 .2-0.5 .3c-0.1 .1-0.2 .2-0.2 .4c0 .2 .2 .4 .6 .5c.3 .2 1 .3 1.9 .4c.5 .1 1 .2 1.4 .3c.4 .1 .8 .3 1.1 .5c.3 .1 .5 .4 .7 .7c.1 .3 .2 .6 .2 1Z" fill="#090926"/><path d="M86 52.5c0 .6-0.1 1.2-0.3 1.7c-0.2 .6-0.5 1-0.9 1.4c-0.4 .4-0.8 .7-1.3 .9c-0.6 .2-1.2 .3-1.8 .3c-0.6 0-1.2-0.1-1.8-0.3c-0.5-0.2-0.9-0.5-1.3-0.9c-0.4-0.4-0.7-0.8-0.9-1.4c-0.2-0.5-0.3-1.1-0.3-1.7c0-0.6 .1-1.2 .3-1.7c.2-0.6 .5-1 .9-1.4c.4-0.4 .8-0.7 1.3-0.9c.6-0.2 1.2-0.3 1.8-0.3c.6 0 1.2 .1 1.8 .3c.5 .2 .9 .5 1.3 .9c.4 .4 .7 .8 .9 1.4c.2 .5 .3 1.1 .3 1.7Zm-1.8 0c0-0.4-0.1-0.7-0.2-1c-0.1-0.4-0.3-0.7-0.5-0.9c-0.2-0.2-0.5-0.4-0.8-0.5c-0.3-0.2-0.6-0.3-1-0.3c-0.4 0-0.7 .1-1 .3c-0.4 .1-0.6 .3-0.8 .5c-0.2 .2-0.4 .5-0.5 .9c-0.1 .3-0.2 .6-0.2 1c0 .4 .1 .7 .2 1.1c.1 .3 .3 .6 .5 .8c.2 .2 .4 .4 .8 .6c.3 .1 .6 .1 1 .1c.4 0 .7 0 1-0.1c.3-0.2 .6-0.4 .8-0.6c.2-0.2 .4-0.5 .5-0.8c.1-0.4 .2-0.7 .2-1.1Z" fill="#090926"/><path d="M95.2 56.6h-1.8v-5.1c0-0.6-0.2-1-0.4-1.3c-0.2-0.2-0.6-0.4-1.1-0.4c-0.6 0-1.2 .3-1.6 .9c-0.4 .5-0.6 1.3-0.6 2.2v3.7h-1.9v-8.2h1.9v2.1c.1-0.8 .5-1.3 1-1.7c.5-0.4 1.1-0.6 1.8-0.6c.8 0 1.5 .3 2 .8c.4 .6 .7 1.4 .7 2.5Z" fill="#090926"/><path d="M102.4 56.6h-2.2v-2.2h2.2Z" fill="#090926"/><path d="M114.9 55.4c-0.5 .5-1 .9-1.6 1.1c-0.6 .2-1.2 .3-1.9 .3c-0.7 0-1.3-0.1-1.9-0.3c-0.5-0.2-1-0.5-1.4-0.9c-0.4-0.4-0.7-0.8-0.9-1.3c-0.2-0.6-0.3-1.1-0.3-1.8c0-0.6 .1-1.2 .3-1.7c.2-0.6 .5-1 .8-1.4c.4-0.4 .8-0.7 1.3-0.9c.5-0.2 1-0.3 1.5-0.3c.6 0 1.1 .1 1.5 .4c.4 .2 .7 .5 .9 1v-1.2h1.6v3.8h-1.6c0-0.7-0.2-1.3-0.6-1.7c-0.4-0.4-0.9-0.7-1.5-0.7c-0.3 0-0.6 .1-0.8 .2c-0.3 .1-0.6 .3-0.8 .5c-0.2 .2-0.4 .5-0.6 .8c-0.1 .3-0.2 .7-0.2 1.2c0 .5 .1 .9 .2 1.2c.2 .3 .4 .6 .6 .8c.2 .2 .5 .4 .8 .5c.4 .1 .7 .1 1 .1c.6 0 1.2 0 1.6-0.2c.4-0.2 .8-0.5 1.1-0.8Z" fill="#090926"/><path d="M125.3 52.5c0 .6-0.1 1.2-0.3 1.7c-0.2 .6-0.5 1-0.9 1.4c-0.4 .4-0.8 .7-1.3 .9c-0.6 .2-1.2 .3-1.8 .3c-0.6 0-1.2-0.1-1.8-0.3c-0.5-0.2-0.9-0.5-1.3-0.9c-0.4-0.4-0.7-0.8-0.9-1.4c-0.2-0.5-0.3-1.1-0.3-1.7c0-0.6 .1-1.2 .3-1.7c.2-0.6 .5-1 .9-1.4c.4-0.4 .8-0.7 1.3-0.9c.6-0.2 1.2-0.3 1.8-0.3c.6 0 1.2 .1 1.8 .3c.5 .2 .9 .5 1.3 .9c.4 .4 .7 .8 .9 1.4c.2 .5 .3 1.1 .3 1.7Zm-1.8 0c0-0.4-0.1-0.7-0.2-1c-0.1-0.4-0.3-0.7-0.5-0.9c-0.2-0.2-0.5-0.4-0.8-0.5c-0.3-0.2-0.6-0.3-1-0.3c-0.4 0-0.7 .1-1 .3c-0.3 .1-0.6 .3-0.8 .5c-0.2 .2-0.4 .5-0.5 .9c-0.1 .3-0.2 .6-0.2 1c0 .4 .1 .7 .2 1.1c.1 .3 .3 .6 .5 .8c.2 .2 .5 .4 .8 .6c.3 .1 .6 .1 1 .1c.4 0 .7 0 1-0.1c.3-0.2 .6-0.4 .8-0.6c.2-0.2 .4-0.5 .5-0.8c.1-0.4 .2-0.7 .2-1.1Z" fill="#090926"/><path d="M134.9 56.6h-1.8v-5.6c0-0.4-0.1-0.7-0.1-0.9c-0.1-0.2-0.2-0.3-0.4-0.3c-0.4 0-0.6 .2-0.7 .7c-0.1 .4-0.2 1-0.2 1.7v4.4h-1.8v-5.6c0-0.4 0-0.7-0.1-0.9c-0.1-0.2-0.2-0.3-0.5-0.3c-0.3 0-0.5 .2-0.6 .7c-0.1 .4-0.2 1-0.2 1.7v4.4h-1.8v-8.2h1.9v1.2c.1-0.5 .3-0.8 .5-1c.3-0.3 .6-0.4 1-0.4c.4 0 .7 .1 .9 .3c.3 .2 .4 .5 .5 .9c.2-0.4 .4-0.7 .6-0.9c.3-0.2 .6-0.3 1.1-0.3c.5 0 1 .2 1.3 .6c.3 .4 .4 1.1 .4 1.9Z" fill="#090926"/><path d="M137 48.4h1.8v.7c.3-0.3 .7-0.5 1-0.7c.4-0.1 .8-0.2 1.3-0.2c.5 0 1 .1 1.4 .3c.5 .2 .9 .5 1.2 .9c.3 .4 .6 .8 .8 1.4c.1 .5 .2 1.1 .2 1.7c0 .6-0.1 1.2-0.2 1.7c-0.2 .6-0.5 1-0.8 1.4c-0.3 .4-0.7 .7-1.2 .9c-0.4 .2-0.9 .3-1.4 .3c-0.5 0-0.9-0.1-1.3-0.3c-0.3-0.1-0.7-0.4-1-0.7v4.1h-1.8Zm1.8 6c.2 .2 .5 .4 .8 .6c.4 .1 .7 .1 1 .1c.7 0 1.2-0.2 1.7-0.7c.4-0.5 .6-1.1 .6-1.9c0-0.8-0.2-1.4-0.6-1.9c-0.5-0.5-1-0.8-1.7-0.8c-0.3 0-0.6 .1-1 .2c-0.3 .2-0.6 .3-0.8 .6Z" fill="#090926"/><path d="M153.3 56.6h-5.5v-1.6h1.8v-8.2h-1.8v-1.7h3.6v9.9h1.9Z" fill="#090926"/><path d="M157.9 53.2c.1 .6 .3 1 .8 1.4c.4 .4 1 .5 1.8 .5c.6 0 1.1 0 1.5-0.2c.5-0.2 .8-0.5 1.1-0.8l1 1.3c-0.5 .5-1.1 .9-1.7 1.1c-0.6 .2-1.2 .3-1.9 .3c-0.7 0-1.2-0.1-1.8-0.3c-0.5-0.2-1-0.5-1.4-0.9c-0.4-0.4-0.7-0.8-0.9-1.4c-0.3-0.5-0.4-1.1-0.4-1.7c0-0.6 .1-1.2 .3-1.7c.2-0.5 .5-1 .9-1.4c.4-0.4 .8-0.7 1.4-0.9c.5-0.2 1.1-0.3 1.7-0.3c.7 0 1.3 .1 1.8 .3c.6 .3 1 .6 1.4 1c.4 .5 .7 1 .9 1.6c.2 .6 .3 1.3 .3 2.1Zm4.8-1.6c-0.1-0.5-0.4-1-0.8-1.3c-0.5-0.3-1-0.5-1.6-0.5c-0.6 0-1.1 .2-1.5 .5c-0.5 .3-0.8 .8-0.9 1.3Z" fill="#090926"/><path d="M174.3 54c-0.1 .8-0.4 1.5-1 2c-0.6 .5-1.3 .8-2.2 .8c-0.5 0-0.9-0.1-1.3-0.2c-0.4-0.2-0.8-0.4-1-0.7c-0.3-0.3-0.5-0.6-0.7-1c-0.1-0.4-0.2-0.8-0.2-1.3v-3.6h-1.9v-1.6h1.9v-3.3h1.8v3.3h3.4v1.6h-3.4v3.6c0 .5 .1 .9 .4 1.2c.2 .2 .6 .3 1 .3c.5 0 .9-0.1 1.2-0.4c.2-0.3 .4-0.7 .4-1.1Z" fill="#090926"/><path d="M177.5 53.2c.1 .6 .4 1 .8 1.4c.5 .4 1.1 .5 1.8 .5c.6 0 1.1 0 1.6-0.2c.4-0.2 .8-0.5 1.1-0.8l.9 1.3c-0.5 .5-1.1 .9-1.6 1.1c-0.6 .2-1.3 .3-2 .3c-0.6 0-1.2-0.1-1.7-0.3c-0.6-0.2-1.1-0.5-1.5-0.9c-0.4-0.4-0.7-0.8-0.9-1.4c-0.2-0.5-0.3-1.1-0.3-1.7c0-0.6 .1-1.2 .3-1.7c.2-0.5 .5-1 .9-1.4c.3-0.4 .8-0.7 1.3-0.9c.5-0.2 1.1-0.3 1.8-0.3c.6 0 1.2 .1 1.8 .3c.5 .3 1 .6 1.4 1c.3 .5 .6 1 .9 1.6c.2 .6 .3 1.3 .3 2.1Zm4.8-1.6c-0.1-0.5-0.3-1-0.8-1.3c-0.4-0.3-1-0.5-1.5-0.5c-0.6 0-1.1 .2-1.6 .5c-0.4 .3-0.7 .8-0.8 1.3Z" fill="#090926"/><path d="M193.4 56.6h-1.8v-0.8c-0.3 .3-0.7 .6-1 .7c-0.4 .2-0.8 .3-1.3 .3c-0.5 0-1-0.1-1.4-0.3c-0.5-0.2-0.9-0.5-1.2-0.9c-0.3-0.4-0.6-0.8-0.8-1.4c-0.2-0.5-0.2-1.1-0.2-1.7c0-0.6 0-1.2 .2-1.7c.2-0.6 .5-1 .8-1.4c.3-0.4 .7-0.7 1.2-0.9c.4-0.2 .9-0.3 1.4-0.3c.5 0 .9 .1 1.3 .2c.3 .2 .7 .4 1 .7v-2.3h-1.6v-1.7h3.4Zm-1.8-6c-0.2-0.3-0.5-0.4-0.8-0.6c-0.4-0.1-0.7-0.2-1-0.2c-0.7 0-1.2 .3-1.7 .8c-0.4 .5-0.6 1.1-0.6 1.9c0 .8 .2 1.4 .6 1.9c.5 .5 1 .7 1.7 .7c.3 0 .6 0 1-0.1c.3-0.2 .6-0.3 .8-0.6Z" fill="#090926"/><path d="M202.3 45.1l-0.4 4.4h-1.4l-0.4-4.4Zm-3.3 0l-0.4 4.4h-1.3l-0.4-4.4Z" fill="#090926"/><path d="M210.5 50.6h-2.2v-2.2h2.2Zm0 6h-2.2v-2.2h2.2Z" fill="#090926"/><path d="M230.2 56.6h-2.2v-2.2h2.2Z" fill="#090926"/><path d="M240 56.6h-2.2v-2.2h2.2Z" fill="#090926"/><path d="M249.8 56.6h-2.2v-2.2h2.2Z" fill="#090926"/><path d="M255.6 58.2h1.3c.3 0 .5 0 .7-0.2c.1-0.1 .1-0.3 .1-0.6v-3.8c0-0.2 .1-0.5 .2-0.7c.1-0.2 .2-0.4 .3-0.6c.2-0.2 .4-0.3 .6-0.4c.2-0.1 .4-0.2 .6-0.2c-0.4-0.1-0.8-0.3-1.2-0.7c-0.3-0.3-0.5-0.8-0.5-1.3v-3.8c0-0.3 0-0.5-0.1-0.6c-0.2-0.1-0.4-0.2-0.7-0.2h-1.3v-1.6h1.3c.4 0 .7 0 1 .2c.3 .1 .6 .3 .8 .5c.2 .2 .4 .4 .5 .7c.1 .3 .2 .7 .2 1v3.8c0 .5 .1 .8 .4 .9c.3 .2 .7 .2 1.2 .2v1.7c-0.5 0-0.9 0-1.2 .2c-0.3 .1-0.4 .4-0.4 .9v3.8c0 .4-0.1 .7-0.2 1c-0.1 .3-0.3 .6-0.5 .8c-0.2 .2-0.5 .4-0.8 .5c-0.3 .1-0.6 .2-1 .2h-1.3Z" fill="#090926"/></g><g transform="translate(415.2,51) scale(0,0) translate(-128,-42.3)" style="animation: 3.4s linear infinite both a12_t;"><path d="M475.6 71.3h71.7v-61.6h-261.9v61.6h169l21.2 22Z" fill="#fff" stroke="#141464" stroke-miterlimit="10" transform="translate(128,42.3) scale(.978,1.012) translate(-416.4,-51.5)"/><g fill="#090926" transform="translate(-287.2,-8.6)"><path d="M310.1 48.2h-1.3c-0.4 0-0.7-0.1-1-0.2c-0.3-0.1-0.6-0.3-0.8-0.5c-0.2-0.2-0.4-0.5-0.5-0.8c-0.1-0.3-0.2-0.6-0.2-1v-3.7c0-0.5-0.1-0.8-0.4-1c-0.3-0.1-0.7-0.2-1.2-0.2v-1.6c.5 0 .9-0.1 1.2-0.2c.3-0.2 .4-0.5 .4-1v-3.7c0-0.4 .1-0.7 .2-1c.1-0.3 .3-0.6 .5-0.8c.2-0.2 .5-0.4 .8-0.5c.3-0.1 .6-0.2 1-0.2h1.3v1.6h-1.3c-0.3 0-0.5 .1-0.7 .2c-0.1 .1-0.1 .4-0.1 .7v3.7c0 .6-0.2 1-0.5 1.4c-0.4 .3-0.8 .5-1.2 .6c.2 0 .4 .1 .6 .2c.2 .1 .4 .3 .6 .4c.1 .2 .2 .4 .3 .6c.1 .3 .2 .5 .2 .8v3.7c0 .3 0 .5 .1 .7c.2 .1 .4 .2 .7 .2h1.3Z"/><path d="M319.7 33.4l-0.4 4.4h-1.4l-0.4-4.4Zm-3.3 0l-0.4 4.4h-1.3l-0.4-4.4Z"/><path d="M330.7 42.4c0 .6-0.1 1-0.4 1.3c-0.2 .4-0.5 .7-0.9 .9c-0.4 .2-0.8 .3-1.3 .4c-0.4 .1-0.9 .1-1.3 .1c-0.8 0-1.5-0.1-2.3-0.3c-0.7-0.2-1.3-0.5-1.9-0.9l.8-1.5c.6 .4 1.2 .7 1.7 .8c.6 .2 1.1 .3 1.7 .3c.7 0 1.2-0.1 1.6-0.3c.3-0.1 .5-0.3 .5-0.6c0-0.2-0.1-0.3-0.2-0.4c-0.1 0-0.2-0.1-0.4-0.2c-0.3-0.1-0.5-0.1-0.9-0.2c-0.4-0.1-0.8-0.2-1.3-0.2c-0.4-0.1-0.8-0.2-1.2-0.3c-0.4-0.1-0.7-0.3-1-0.4c-0.3-0.2-0.5-0.5-0.7-0.8c-0.2-0.2-0.3-0.6-0.3-1c0-0.5 .1-0.9 .4-1.2c.2-0.3 .5-0.6 .9-0.8c.3-0.2 .7-0.4 1.2-0.4c.4-0.1 .9-0.2 1.4-0.2c.6 0 1.2 .1 1.8 .3c.6 .1 1.2 .4 1.6 .7l-0.7 1.4c-0.4-0.3-0.9-0.5-1.3-0.6c-0.5-0.1-0.9-0.1-1.4-0.1c-0.3 0-0.5 0-0.7 0c-0.3 0-0.5 .1-0.7 .1c-0.2 .1-0.3 .2-0.5 .3c-0.1 .1-0.2 .2-0.2 .4c0 .2 .2 .4 .6 .5c.4 .2 1.1 .3 2 .5c.5 0 .9 .1 1.4 .2c.4 .1 .7 .3 1 .5c.3 .1 .6 .4 .7 .7c.2 .3 .3 .6 .3 1Z"/><path d="M340.4 43.7c-0.5 .6-1.1 .9-1.7 1.1c-0.5 .2-1.2 .3-1.8 .3c-0.7 0-1.3-0.1-1.9-0.3c-0.6-0.2-1-0.5-1.4-0.9c-0.4-0.3-0.7-0.8-0.9-1.3c-0.2-0.5-0.3-1.1-0.3-1.8c0-0.6 .1-1.2 .3-1.7c.2-0.5 .5-1 .8-1.4c.4-0.4 .8-0.6 1.3-0.9c.4-0.2 1-0.3 1.5-0.3c.6 0 1 .1 1.5 .4c.4 .2 .7 .5 .9 1v-1.2h1.6v3.8h-1.6c0-0.7-0.2-1.3-0.6-1.7c-0.4-0.4-0.9-0.7-1.6-0.7c-0.2 0-0.5 .1-0.8 .2c-0.2 .1-0.5 .3-0.7 .5c-0.3 .2-0.4 .5-0.6 .8c-0.2 .3-0.2 .7-0.2 1.2c0 .5 0 .9 .2 1.2c.1 .3 .3 .6 .6 .8c.2 .2 .5 .4 .8 .5c.3 .1 .7 .2 1 .2c.6 0 1.1-0.1 1.6-0.3c.4-0.2 .8-0.4 1.1-0.8Z"/><path d="M342.3 42.5c0-0.4 .2-0.9 .4-1.2c.3-0.4 .6-0.7 1-0.9c.4-0.3 .9-0.4 1.5-0.6c.5-0.1 1.1-0.1 1.6-0.1c.3 0 .6 0 .8 0c.2 0 .5 0 .7 0v-0.3c0-0.4-0.2-0.7-0.5-1c-0.3-0.2-0.8-0.3-1.3-0.3c-0.5 0-1 .1-1.5 .2c-0.5 .2-1 .4-1.5 .6l-0.7-1.4c.5-0.3 1.1-0.5 1.7-0.7c.7-0.2 1.3-0.3 2-0.3c.4 0 .9 .1 1.3 .2c.4 .1 .8 .2 1.2 .5c.3 .2 .6 .5 .8 .9c.2 .3 .3 .8 .3 1.3v5.5h-1.8v-1.2c-0.3 .4-0.7 .8-1.3 1c-0.5 .3-1.1 .4-1.8 .4c-0.4 0-0.7-0.1-1.1-0.2c-0.4-0.1-0.7-0.2-0.9-0.4c-0.3-0.3-0.5-0.5-0.6-0.8c-0.2-0.4-0.3-0.7-0.3-1.2Zm3.4 1c.4 0 .7-0.1 1-0.2c.3 0 .6-0.2 .8-0.3c.3-0.2 .5-0.4 .6-0.6c.1-0.3 .2-0.5 .2-0.8v-0.3c-0.3 0-0.6-0.1-0.8-0.1c-0.3 0-0.5 0-0.7 0c-0.9 0-1.5 .1-2 .4c-0.4 .2-0.7 .5-0.7 .8c0 .7 .6 1.1 1.6 1.1Z"/><path d="M359.9 44.9h-1.8v-5.1c0-0.6-0.1-1-0.3-1.3c-0.3-0.2-0.6-0.4-1.1-0.4c-0.7 0-1.2 .3-1.6 .9c-0.5 .5-0.7 1.3-0.7 2.2v3.7h-1.8v-8.2h1.8v2.1c.2-0.7 .6-1.3 1-1.7c.5-0.4 1.1-0.6 1.9-0.6c.8 0 1.5 .3 1.9 .8c.5 .6 .7 1.4 .7 2.5Z"/><path d="M367.2 44.9h-2.2v-2.2h2.2Z"/><path d="M377 35.6h-2.2v-2.2h2.2Zm1.7 9.3h-5.5v-1.6h1.8v-4.9h-1.8v-1.7h3.6v6.6h1.9Z"/><path d="M389.4 44.9h-1.8v-5.1c0-0.6-0.1-1-0.4-1.3c-0.2-0.2-0.5-0.4-1-0.4c-0.7 0-1.2 .3-1.7 .9c-0.4 .5-0.6 1.3-0.6 2.2v3.7h-1.8v-8.2h1.8v2.1c.2-0.7 .5-1.3 1-1.7c.5-0.4 1.1-0.6 1.8-0.6c.9 0 1.5 .3 2 .8c.5 .6 .7 1.4 .7 2.5Z"/><path d="M396.7 35.6h-2.2v-2.2h2.2Zm1.7 9.3h-5.5v-1.6h1.8v-4.9h-1.8v-1.7h3.6v6.6h1.9Z"/><path d="M409.6 42.3c-0.1 .9-0.4 1.5-1 2c-0.6 .6-1.3 .8-2.2 .8c-0.5 0-0.9-0.1-1.3-0.2c-0.4-0.2-0.8-0.4-1-0.7c-0.3-0.3-0.5-0.6-0.7-1c-0.2-0.4-0.2-0.8-0.2-1.3v-3.5h-1.9v-1.7h1.9v-3.3h1.8v3.3h3.4v1.7h-3.4v3.5c0 .5 .1 .9 .4 1.2c.2 .2 .6 .4 1 .4c.5 0 .9-0.2 1.1-0.5c.3-0.3 .5-0.6 .5-1.1Z"/><path d="M416.3 35.6h-2.2v-2.2h2.2Zm1.7 9.3h-5.5v-1.6h1.8v-4.9h-1.8v-1.7h3.6v6.6h1.9Z"/><path d="M420.9 42.5c0-0.4 .2-0.9 .4-1.2c.3-0.4 .6-0.7 1-0.9c.5-0.3 .9-0.4 1.5-0.6c.5-0.1 1.1-0.1 1.6-0.1c.3 0 .6 0 .8 0c.3 0 .5 0 .7 0v-0.3c0-0.4-0.2-0.7-0.5-1c-0.3-0.2-0.7-0.3-1.3-0.3c-0.5 0-1 .1-1.5 .2c-0.5 .2-1 .4-1.4 .6l-0.8-1.4c.6-0.3 1.1-0.5 1.8-0.7c.6-0.2 1.2-0.3 1.9-0.3c.5 0 .9 .1 1.3 .2c.5 .1 .8 .2 1.2 .5c.3 .2 .6 .5 .8 .9c.2 .3 .3 .8 .3 1.3v5.5h-1.8v-1.2c-0.3 .4-0.7 .8-1.3 1c-0.5 .3-1.1 .4-1.8 .4c-0.4 0-0.7-0.1-1.1-0.2c-0.3-0.1-0.7-0.2-0.9-0.4c-0.3-0.3-0.5-0.5-0.6-0.8c-0.2-0.4-0.3-0.7-0.3-1.2Zm3.4 1c.4 0 .7-0.1 1-0.2c.3 0 .6-0.2 .8-0.3c.3-0.2 .5-0.4 .6-0.6c.1-0.3 .2-0.5 .2-0.8v-0.3c-0.3 0-0.5-0.1-0.8-0.1c-0.2 0-0.5 0-0.7 0c-0.9 0-1.5 .1-2 .4c-0.4 .2-0.7 .5-0.7 .8c0 .7 .6 1.1 1.6 1.1Z"/><path d="M439.1 42.3c-0.1 .9-0.5 1.5-1 2c-0.6 .6-1.4 .8-2.2 .8c-0.5 0-0.9-0.1-1.3-0.2c-0.4-0.2-0.8-0.4-1.1-0.7c-0.2-0.3-0.5-0.6-0.6-1c-0.2-0.4-0.2-0.8-0.2-1.3v-3.5h-1.9v-1.7h1.9v-3.3h1.8v3.3h3.4v1.7h-3.4v3.5c0 .5 .1 .9 .4 1.2c.2 .2 .6 .4 1 .4c.5 0 .9-0.2 1.1-0.5c.3-0.3 .4-0.6 .5-1.1Z"/><path d="M442.3 41.5c.1 .6 .3 1 .8 1.4c.4 .4 1 .6 1.8 .6c.6 0 1.1-0.1 1.5-0.3c.5-0.2 .9-0.4 1.2-0.8l.9 1.3c-0.5 .6-1.1 .9-1.7 1.1c-0.6 .2-1.2 .3-1.9 .3c-0.6 0-1.2-0.1-1.8-0.3c-0.5-0.2-1-0.5-1.4-0.9c-0.4-0.4-0.7-0.8-0.9-1.3c-0.2-0.6-0.4-1.1-0.4-1.8c0-0.6 .1-1.2 .4-1.7c.2-0.5 .5-1 .8-1.4c.4-0.3 .9-0.6 1.4-0.9c.5-0.2 1.1-0.3 1.7-0.3c.7 0 1.3 .1 1.8 .4c.6 .2 1 .5 1.4 .9c.4 .5 .7 1 .9 1.6c.2 .6 .4 1.3 .4 2.1Zm4.8-1.6c-0.1-0.5-0.4-1-0.8-1.3c-0.5-0.3-1-0.5-1.6-0.5c-0.5 0-1 .2-1.5 .5c-0.5 .3-0.7 .8-0.8 1.3Z"/><path d="M458.2 44.9h-1.8v-0.8c-0.4 .4-0.7 .6-1.1 .8c-0.3 .1-0.7 .2-1.2 .2c-0.5 0-1-0.1-1.5-0.3c-0.4-0.2-0.8-0.5-1.1-0.9c-0.4-0.4-0.6-0.8-0.8-1.4c-0.2-0.5-0.3-1.1-0.3-1.7c0-0.6 .1-1.2 .3-1.7c.2-0.5 .4-1 .8-1.4c.3-0.4 .7-0.6 1.1-0.9c.5-0.2 1-0.3 1.5-0.3c.5 0 .9 .1 1.2 .3c.4 .1 .7 .3 1.1 .6v-2.3h-1.6v-1.7h3.4Zm-1.8-6c-0.2-0.3-0.5-0.4-0.9-0.6c-0.3-0.1-0.6-0.1-0.9-0.1c-0.7 0-1.3 .2-1.7 .7c-0.4 .5-0.6 1.1-0.6 1.9c0 .8 .2 1.4 .6 1.9c.4 .5 1 .8 1.7 .8c.3 0 .6-0.1 .9-0.2c.4-0.2 .7-0.3 .9-0.6Z"/><path d="M467.1 33.4l-0.4 4.4h-1.4l-0.4-4.4Zm-3.3 0l-0.4 4.4h-1.4l-0.4-4.4Z"/><path d="M475.3 38.9h-2.2v-2.2h2.2Zm0 6h-2.2v-2.2h2.2Z"/><path d="M495 44.9h-2.3v-2.2h2.3Z"/><path d="M504.8 44.9h-2.2v-2.2h2.2Z"/><path d="M514.6 44.9h-2.2v-2.2h2.2Z"/><path d="M520.3 46.6h1.4c.3 0 .5-0.1 .6-0.2c.2-0.2 .2-0.4 .2-0.7v-3.8c0-0.2 .1-0.5 .2-0.7c.1-0.2 .2-0.4 .3-0.6c.2-0.2 .3-0.3 .5-0.4c.2-0.1 .4-0.2 .7-0.2c-0.5-0.1-0.9-0.3-1.2-0.7c-0.3-0.3-0.5-0.8-0.5-1.3v-3.8c0-0.3 0-0.5-0.2-0.6c-0.1-0.1-0.3-0.2-0.6-0.2h-1.4v-1.6h1.4c.4 0 .7 .1 1 .2c.3 .1 .5 .3 .8 .5c.2 .2 .3 .5 .5 .8c.1 .3 .1 .6 .1 .9v3.8c0 .5 .2 .8 .5 .9c.2 .2 .6 .2 1.2 .2v1.7c-0.6 0-1 .1-1.2 .2c-0.3 .1-0.5 .4-0.5 .9v3.8c0 .4 0 .7-0.1 1c-0.2 .3-0.3 .6-0.5 .8c-0.3 .2-0.5 .4-0.8 .5c-0.3 .1-0.6 .2-1 .2h-1.4Z"/></g></g><g transform="translate(1111.1,214.9) scale(0,0) translate(-121.1,-41.8)" style="animation: 3.4s linear infinite both a13_t;"><path d="M0 61.7v-61.7h242.1v61.7h-140l-21.1 21.9v-21.9Z" fill="#fff" stroke="#141464" stroke-miterlimit="10"/><path d="M25.8 38.5h-1.4c-0.3 0-0.7 0-1-0.2c-0.3-0.1-0.5-0.2-0.7-0.5c-0.3-0.2-0.4-0.4-0.5-0.7c-0.2-0.3-0.2-0.7-0.2-1v-3.8c0-0.5-0.2-0.8-0.4-0.9c-0.3-0.2-0.7-0.2-1.3-0.2v-1.7c.6 0 1 0 1.3-0.2c.2-0.1 .4-0.4 .4-0.9v-3.8c0-0.3 0-0.7 .2-1c.1-0.3 .2-0.5 .5-0.7c.2-0.3 .4-0.4 .7-0.6c.3-0.1 .7-0.2 1-0.2h1.4v1.7h-1.4c-0.3 0-0.5 0-0.6 .2c-0.1 .1-0.2 .3-0.2 .6v3.8c0 .5-0.2 1-0.5 1.3c-0.3 .4-0.7 .6-1.1 .7c.2 0 .4 .1 .6 .2c.2 .1 .3 .2 .5 .4c.1 .1 .3 .3 .4 .6c.1 .2 .1 .5 .1 .7v3.8c0 .3 .1 .5 .2 .6c.1 .1 .3 .2 .6 .2h1.4Z" fill="#090926"/><path d="M35.3 23.8l-0.4 4.4h-1.3l-0.4-4.4Zm-3.2 0l-0.4 4.4h-1.4l-0.4-4.4Z" fill="#090926"/><path d="M43.6 26h-2.3v-2.2h2.3Zm1.6 9.2h-5.5v-1.6h1.8v-4.9h-1.8v-1.6h3.7v6.5h1.8Z" fill="#090926"/><path d="M55.9 35.2h-1.8v-5c0-0.6-0.1-1.1-0.3-1.3c-0.3-0.3-0.6-0.4-1.1-0.4c-0.7 0-1.2 .3-1.6 .8c-0.5 .6-0.7 1.3-0.7 2.3v3.6h-1.8v-8.1h1.8v2c.2-0.7 .5-1.2 1-1.6c.5-0.4 1.1-0.6 1.9-0.6c.8 0 1.5 .2 1.9 .8c.5 .5 .7 1.4 .7 2.5Z" fill="#090926"/><path d="M66.2 27.1l-3 8.1h-2.2l-3-8.1h1.9l2.2 6.2l2.2-6.2Z" fill="#090926"/><path d="M76.2 31.2c0 .6-0.1 1.2-0.3 1.7c-0.2 .5-0.5 1-0.8 1.4c-0.4 .3-0.9 .6-1.4 .8c-0.5 .2-1.1 .4-1.8 .4c-0.6 0-1.2-0.2-1.7-0.4c-0.5-0.2-1-0.5-1.4-0.8c-0.3-0.4-0.6-0.9-0.8-1.4c-0.2-0.5-0.3-1.1-0.3-1.7c0-0.7 .1-1.2 .3-1.8c.2-0.5 .5-0.9 .8-1.3c.4-0.4 .9-0.7 1.4-0.9c.5-0.2 1.1-0.3 1.7-0.3c.7 0 1.3 .1 1.8 .3c.5 .2 1 .5 1.4 .9c.3 .4 .6 .8 .8 1.3c.2 .6 .3 1.1 .3 1.8Zm-1.8 0c0-0.4 0-0.8-0.2-1.1c-0.1-0.3-0.2-0.6-0.4-0.8c-0.3-0.3-0.5-0.5-0.8-0.6c-0.3-0.1-0.7-0.2-1.1-0.2c-0.4 0-0.7 .1-1 .2c-0.3 .1-0.6 .3-0.8 .6c-0.2 .2-0.4 .5-0.5 .8c-0.1 .3-0.1 .7-0.1 1.1c0 .4 0 .7 .1 1c.1 .3 .3 .6 .5 .9c.2 .2 .5 .4 .8 .5c.3 .1 .6 .2 1 .2c.4 0 .8-0.1 1.1-0.2c.3-0.1 .5-0.3 .8-0.5c.2-0.3 .3-0.6 .5-0.9c.1-0.3 .1-0.7 .1-1Z" fill="#090926"/><path d="M82.9 26h-2.3v-2.2h2.3Zm1.6 9.2h-5.5v-1.6h1.8v-4.9h-1.8v-1.6h3.7v6.5h1.8Z" fill="#090926"/><path d="M95.4 34.1c-0.6 .5-1.1 .9-1.7 1.1c-0.6 .2-1.2 .3-1.9 .3c-0.7 0-1.3-0.2-1.9-0.4c-0.5-0.2-1-0.4-1.4-0.8c-0.4-0.4-0.7-0.8-0.9-1.4c-0.2-0.5-0.3-1.1-0.3-1.7c0-0.7 .1-1.2 .3-1.8c.2-0.5 .5-0.9 .9-1.3c.3-0.4 .7-0.7 1.2-0.9c.5-0.2 1-0.3 1.6-0.3c.5 0 1 .1 1.4 .3c.4 .3 .7 .6 .9 1v-1.1h1.7v3.8h-1.7c0-0.7-0.2-1.3-0.6-1.8c-0.4-0.4-0.9-0.6-1.5-0.6c-0.3 0-0.5 .1-0.8 .2c-0.3 .1-0.6 .2-0.8 .4c-0.2 .2-0.4 .5-0.6 .9c-0.1 .3-0.2 .7-0.2 1.2c0 .4 .1 .8 .2 1.1c.2 .4 .4 .6 .6 .9c.2 .2 .5 .3 .8 .5c.4 .1 .7 .1 1.1 .1c.6 0 1.1-0.1 1.5-0.3c.4-0.2 .8-0.4 1.1-0.7Z" fill="#090926"/><path d="M99 31.8c.1 .6 .3 1.1 .8 1.5c.4 .3 1 .5 1.8 .5c.6 0 1.1-0.1 1.5-0.3c.5-0.2 .9-0.4 1.2-0.7l.9 1.3c-0.5 .5-1.1 .9-1.7 1.1c-0.6 .2-1.2 .3-1.9 .3c-0.6 0-1.2-0.2-1.8-0.4c-0.5-0.2-1-0.5-1.4-0.8c-0.4-0.4-0.7-0.9-0.9-1.4c-0.2-0.5-0.4-1.1-0.4-1.7c0-0.7 .1-1.2 .3-1.8c.3-0.5 .6-0.9 .9-1.3c.4-0.4 .9-0.7 1.4-0.9c.5-0.2 1.1-0.3 1.7-0.3c.7 0 1.3 .1 1.8 .3c.6 .2 1 .6 1.4 1c.4 .4 .7 .9 .9 1.6c.2 .6 .3 1.3 .3 2Zm4.8-1.6c-0.1-0.5-0.4-0.9-0.8-1.2c-0.5-0.3-1-0.5-1.6-0.5c-0.5 0-1.1 .2-1.5 .5c-0.5 .3-0.8 .7-0.8 1.2Z" fill="#090926"/><path d="M112.3 35.2h-2.2v-2.2h2.2Z" fill="#090926"/><path d="M117.4 27.1h1.8v.7c.4-0.3 .7-0.5 1.1-0.7c.3-0.2 .7-0.2 1.2-0.2c.5 0 1 .1 1.5 .3c.4 .2 .8 .5 1.1 .9c.3 .4 .6 .8 .8 1.3c.2 .6 .3 1.1 .3 1.8c0 .6-0.1 1.2-0.3 1.7c-0.2 .5-0.5 1-0.8 1.4c-0.3 .3-0.7 .6-1.1 .8c-0.5 .2-1 .4-1.5 .4c-0.5 0-0.9-0.1-1.2-0.3c-0.4-0.2-0.7-0.4-1.1-0.7v4h-1.8Zm1.8 6c.2 .2 .5 .4 .8 .5c.4 .1 .7 .2 1 .2c.7 0 1.3-0.2 1.7-0.7c.4-0.5 .6-1.1 .6-1.9c0-0.8-0.2-1.5-0.6-2c-0.4-0.5-1-0.7-1.7-0.7c-0.3 0-0.6 .1-1 .2c-0.3 .1-0.6 .3-0.8 .5Z" fill="#090926"/><path d="M126.8 32.9c0-0.5 .1-0.9 .3-1.3c.3-0.3 .6-0.6 1.1-0.9c.4-0.2 .9-0.4 1.4-0.5c.5-0.1 1.1-0.2 1.7-0.2c.3 0 .5 0 .8 0c.2 0 .4 .1 .6 .1v-0.3c0-0.5-0.1-0.8-0.5-1c-0.3-0.2-0.7-0.3-1.3-0.3c-0.5 0-1 .1-1.5 .2c-0.5 .1-1 .3-1.4 .6l-0.8-1.4c.6-0.3 1.2-0.6 1.8-0.8c.6-0.1 1.2-0.2 1.9-0.2c.5 0 .9 0 1.3 .1c.5 .1 .9 .3 1.2 .5c.3 .2 .6 .5 .8 .9c.2 .4 .3 .8 .3 1.4v5.4h-1.8v-1.2c-0.3 .5-0.7 .8-1.2 1.1c-0.6 .2-1.2 .4-1.8 .4c-0.4 0-0.8-0.1-1.2-0.2c-0.3-0.1-0.6-0.3-0.9-0.5c-0.2-0.2-0.5-0.5-0.6-0.8c-0.2-0.3-0.2-0.7-0.2-1.1Zm3.3 .9c.4 0 .7 0 1-0.1c.3-0.1 .6-0.2 .9-0.4c.2-0.1 .4-0.3 .5-0.6c.2-0.2 .2-0.5 .2-0.7v-0.3c-0.3-0.1-0.5-0.1-0.8-0.1c-0.2 0-0.4 0-0.6 0c-0.9 0-1.6 .1-2.1 .3c-0.4 .3-0.6 .6-0.6 .9c0 .7 .5 1 1.5 1Z" fill="#090926"/><path d="M141.8 26h-2.2v-2.2h2.2Zm1.7 9.2h-5.5v-1.6h1.8v-4.9h-1.8v-1.6h3.6v6.5h1.9Z" fill="#090926"/><path d="M154.2 35.2h-1.8v-0.7c-0.4 .3-0.7 .5-1.1 .7c-0.3 .2-0.7 .3-1.2 .3c-0.5 0-1-0.2-1.5-0.4c-0.4-0.2-0.8-0.5-1.1-0.8c-0.4-0.4-0.6-0.9-0.8-1.4c-0.2-0.5-0.3-1.1-0.3-1.7c0-0.7 .1-1.2 .3-1.8c.2-0.5 .4-0.9 .8-1.3c.3-0.4 .7-0.7 1.1-0.9c.5-0.2 1-0.3 1.5-0.3c.5 0 .9 0 1.2 .2c.4 .2 .7 .4 1.1 .7v-2.4h-1.6v-1.6h3.4Zm-1.8-6c-0.2-0.2-0.5-0.4-0.9-0.5c-0.3-0.1-0.6-0.2-0.9-0.2c-0.7 0-1.3 .2-1.7 .7c-0.4 .5-0.7 1.2-0.7 2c0 .8 .3 1.4 .7 1.9c.4 .5 1 .7 1.7 .7c.3 0 .6-0.1 .9-0.2c.4-0.1 .7-0.3 .9-0.5Z" fill="#090926"/><path d="M163.1 23.8l-0.4 4.4h-1.4l-0.4-4.4Zm-3.3 0l-0.4 4.4h-1.4l-0.4-4.4Z" fill="#090926"/><path d="M171.3 29.3h-2.2v-2.2h2.2Zm0 5.9h-2.2v-2.2h2.2Z" fill="#090926"/><path d="M191 35.2h-2.3v-2.2h2.3Z" fill="#090926"/><path d="M200.8 35.2h-2.2v-2.2h2.2Z" fill="#090926"/><path d="M210.6 35.2h-2.2v-2.2h2.2Z" fill="#090926"/><path d="M216.3 36.9h1.4c.3 0 .5-0.1 .6-0.2c.2-0.1 .2-0.3 .2-0.6v-3.8c0-0.3 .1-0.5 .1-0.8c.1-0.2 .3-0.4 .4-0.6c.2-0.1 .3-0.3 .5-0.4c.2-0.1 .4-0.1 .7-0.2c-0.5-0.1-0.9-0.3-1.2-0.6c-0.3-0.4-0.5-0.8-0.5-1.4v-3.7c0-0.3 0-0.5-0.2-0.6c-0.1-0.2-0.3-0.2-0.6-0.2h-1.4v-1.7h1.4c.3 0 .7 .1 1 .2c.3 .1 .5 .3 .8 .5c.2 .2 .3 .5 .4 .8c.2 .3 .2 .6 .2 1v3.7c0 .5 .2 .9 .4 1c.3 .1 .7 .2 1.3 .2v1.6c-0.6 0-1 .1-1.3 .2c-0.2 .2-0.4 .5-0.4 1v3.8c0 .3 0 .7-0.2 1c-0.1 .3-0.2 .5-0.5 .7c-0.2 .3-0.4 .4-0.7 .5c-0.3 .2-0.7 .2-1 .2h-1.4Z" fill="#090926"/></g><ellipse rx="5" ry="5" fill="#4141d8" stroke-miterlimit="10" stroke="#e9e9ff" stroke-width="3" transform="translate(594.5,283.3) translate(2,2)" style="animation: 5.1s linear infinite both a14_t, 5.1s linear infinite both a14_o;"/><ellipse rx="5" ry="5" fill="#4141d8" stroke-miterlimit="10" stroke="#e9e9ff" stroke-width="3" opacity="0" transform="translate(389,359.8) translate(2,2)" style="animation: 4.3s linear infinite both a15_t, 4.3s linear infinite both a15_o;"/><ellipse rx="5" ry="5" fill="#4141d8" stroke-miterlimit="10" stroke="#e9e9ff" stroke-width="3" opacity="0" transform="translate(389,483.4) translate(2,2)" style="animation: 5.2s linear infinite both a16_t, 5.2s linear infinite both a16_o;"/><ellipse rx="5" ry="5" fill="#4141d8" stroke-miterlimit="10" stroke="#e9e9ff" stroke-width="3" transform="translate(506.3,371.5) translate(2,2)" style="animation: 5.5s linear infinite both a17_t, 5.5s linear infinite both a17_o;"/><ellipse rx="5" ry="5" fill="#4141d8" stroke-miterlimit="10" stroke="#e9e9ff" stroke-width="3" opacity="0" transform="translate(771,443.8) translate(2,2)" style="animation: 5s linear infinite both a18_t, 5s linear infinite both a18_o;"/></svg>