<svg width="667" height="509" viewBox="0 0 667 509" fill="none" xmlns="http://www.w3.org/2000/svg">
<path d="M652.551 155.265C641.351 162.053 626.579 160.787 616.671 151.298C509.573 48.587 346.269 29.892 219.547 105.818C219.055 106.111 218.562 106.41 218.078 106.704C94.87 181.413 34.2699 331.05 70.6489 471.262C74.7559 487.102 65.2549 503.309 49.4019 507.403C33.5549 511.512 17.3689 502.005 13.2659 486.155C-29.6441 320.764 41.913 144.189 187.342 56.003C187.922 55.652 188.488 55.309 189.075 54.964C338.659 -34.667 531.367 -12.648 657.712 108.5C669.522 119.83 669.919 138.602 658.59 150.416C656.752 152.335 654.713 153.948 652.551 155.265Z" fill="#EF487F"/>
<path d="M636.622 305.937C635.689 306.501 634.711 307.02 633.701 307.492C618.858 314.394 601.227 307.938 594.332 293.093C554.412 207.171 464.209 154.672 369.868 162.473C275.108 170.318 194.642 237.28 169.669 329.129C165.372 344.928 149.091 354.251 133.288 349.947C117.491 345.652 108.167 329.359 112.47 313.563C143.966 197.749 245.439 113.281 364.981 103.391C483.978 93.552 597.751 159.75 648.1 268.12C654.531 281.955 649.364 298.202 636.622 305.937Z" fill="#F36C21"/>
<path d="M556.905 412.163C552.682 414.725 547.77 416.26 542.486 416.426C526.117 416.939 512.439 404.09 511.923 387.731C510.436 340.022 481.988 296.525 439.462 276.923C393.221 255.6 338.788 264.688 300.862 300.128C288.88 311.324 270.136 310.639 258.967 298.662C247.804 286.698 248.453 267.94 260.43 256.767C316.052 204.873 396.071 191.644 464.286 223.08C527.034 252.014 568.988 315.906 571.185 385.871C571.532 396.946 565.754 406.796 556.905 412.163Z" fill="#FCB715"/>
</svg>